<?xml version="1.0" encoding="UTF-8" standalone="no"?>
<svg width="60px" height="68px" viewBox="0 0 60 68" version="1.1" xmlns="http://www.w3.org/2000/svg" xmlns:xlink="http://www.w3.org/1999/xlink">
    <!-- Generator: Sketch 47.1 (45422) - http://www.bohemiancoding.com/sketch -->
    <title>Calendar</title>
    <desc>Created with Sketch.</desc>
    <defs></defs>
    <g id="Path" stroke="none" stroke-width="1" fill="none" fill-rule="evenodd">
        <g id="Amazon-Visual" transform="translate(-615.000000, -397.000000)">
            <g id="dialog" transform="translate(320.000000, 152.000000)">
                <g id="2" transform="translate(225.000000, 239.000000)">
                    <g id="Calendar" transform="translate(60.000000, 0.000000)">
                        <path d="M21.5,8.16666667 L21.5,6.66666667 L20,8.16666667 L21.5,8.16666667 Z M25.1666667,8.16666667 L26.6666667,8.16666667 L25.1666667,6.66666667 L25.1666667,8.16666667 Z M54.8333333,8.16666667 L54.8333333,6.66666667 L53.3333333,8.16666667 L54.8333333,8.16666667 Z M58.5,8.16666667 L60,8.16666667 L58.5,6.66666667 L58.5,8.16666667 Z M21.5,8.16666667 L25.1666667,8.16666667 L25.1666667,14.8333333 L54.8333333,14.8333333 L54.8333333,8.16666667 L58.5,8.16666667 L58.5,14.8333333 L63.3333333,14.8333333 C66.1715729,14.8333333 68.5,17.1617605 68.5,20 L68.5,66.6666667 C68.5,69.5049062 66.1715729,71.8333333 63.3333333,71.8333333 L16.6666667,71.8333333 C13.8077501,71.8333333 11.5,69.5175979 11.5,66.6666667 L11.533333,20.0010714 C11.5333333,17.1402866 13.8164216,14.8333333 16.6666667,14.8333333 L21.5,14.8333333 L21.5,8.16666667 Z M63.3333333,72.1666667 L17.6666667,72.1666667 C14.0768158,72.1666667 11.1666667,69.2565175 11.1666667,65.6666667 L11.1666667,28.5 L68.8333333,28.5 L68.8333333,66.6666667 C68.8333333,69.7042328 66.3708995,72.1666667 63.3333333,72.1666667 Z" id="Shape" stroke-opacity="0.54" stroke="#000000" stroke-width="3" fill-rule="nonzero"></path>
                        <polygon id="Path" fill-opacity="0.54" fill="#000000" points="30 36.6666667 23.3333333 36.6666667 23.3333333 43.3333333 30 43.3333333"></polygon>
                        <polygon id="Path" fill-opacity="0.54" fill="#000000" points="43.3333333 36.6666667 36.6666667 36.6666667 36.6666667 43.3333333 43.3333333 43.3333333"></polygon>
                        <polygon id="Path" fill-opacity="0.54" fill="#000000" points="56.6666667 36.6666667 50 36.6666667 50 43.3333333 56.6666667 43.3333333"></polygon>
                        <polygon id="Path" fill-opacity="0.54" fill="#000000" points="30 51.6666667 23.3333333 51.6666667 23.3333333 58.3333333 30 58.3333333"></polygon>
                        <polygon id="Path" fill-opacity="0.54" fill="#000000" points="43.3333333 51.6666667 36.6666667 51.6666667 36.6666667 58.3333333 43.3333333 58.3333333"></polygon>
                        <polygon id="Path" fill-opacity="0.54" fill="#000000" points="56.6666667 51.6666667 50 51.6666667 50 58.3333333 56.6666667 58.3333333"></polygon>
                        <polygon id="Shape" points="0 0 80 0 80 80 0 80"></polygon>
                    </g>
                </g>
            </g>
        </g>
    </g>
</svg>