<?xml version="1.0" encoding="UTF-8" standalone="no"?>
<svg width="60px" height="68px" viewBox="0 0 60 68" version="1.1" xmlns="http://www.w3.org/2000/svg" xmlns:xlink="http://www.w3.org/1999/xlink">
    <!-- Generator: Sketch 47.1 (45422) - http://www.bohemiancoding.com/sketch -->
    <title>Calendar</title>
    <desc>Created with Sketch.</desc>
    <defs></defs>
    <g id="Path" stroke="none" stroke-width="1" fill="none" fill-rule="evenodd">
        <g id="Amazon-Visual" transform="translate(-615.000000, -397.000000)">
            <g id="dialog" transform="translate(320.000000, 152.000000)">
                <g id="2" transform="translate(225.000000, 239.000000)">
                    <g id="Calendar" transform="translate(60.000000, 0.000000)">
                        <g>
                            <path d="M58.5,8.16666667 L52.8333333,8.16666667 L52.8333333,14.8333333 L27.1666667,14.8333333 L27.1666667,8.16666667 L21.5,8.16666667 L21.5,14.8333333 L16.6666667,14.8333333 C13.8164216,14.8333333 11.5333333,17.1402866 11.533333,20.0010714 L11.5,66.6666667 C11.5,69.5175979 13.8077501,71.8333333 16.6666667,71.8333333 L63.3333333,71.8333333 C66.1715729,71.8333333 68.5,69.5049062 68.5,66.6666667 L68.5,20 C68.5,17.1617605 66.1715729,14.8333333 63.3333333,14.8333333 L58.5,14.8333333 L58.5,8.16666667 Z" id="Path" stroke-opacity="0.54" stroke="#000000" stroke-width="3"></path>
                            <path d="M14.5,29.5 L65.5,29.5" id="Line" stroke-opacity="0.54" stroke="#000000" stroke-width="3" stroke-linecap="square"></path>
                            <polygon id="Path" fill-opacity="0.54" fill="#000000" points="30 36.6666667 23.3333333 36.6666667 23.3333333 43.3333333 30 43.3333333"></polygon>
                            <polygon id="Path" fill-opacity="0.54" fill="#000000" points="43.3333333 36.6666667 36.6666667 36.6666667 36.6666667 43.3333333 43.3333333 43.3333333"></polygon>
                            <polygon id="Path" fill-opacity="0.54" fill="#000000" points="56.6666667 36.6666667 50 36.6666667 50 43.3333333 56.6666667 43.3333333"></polygon>
                            <polygon id="Path" fill-opacity="0.54" fill="#000000" points="30 51.6666667 23.3333333 51.6666667 23.3333333 58.3333333 30 58.3333333"></polygon>
                            <polygon id="Path" fill-opacity="0.54" fill="#000000" points="43.3333333 51.6666667 36.6666667 51.6666667 36.6666667 58.3333333 43.3333333 58.3333333"></polygon>
                            <polygon id="Path" fill-opacity="0.54" fill="#000000" points="56.6666667 51.6666667 50 51.6666667 50 58.3333333 56.6666667 58.3333333"></polygon>
                        </g>
                    </g>
                </g>
            </g>
        </g>
    </g>
</svg>