<?xml version="1.0" encoding="UTF-8" standalone="no"?>
<svg width="94px" height="76px" viewBox="0 0 94 76" version="1.1" xmlns="http://www.w3.org/2000/svg" xmlns:xlink="http://www.w3.org/1999/xlink">
    <!-- Generator: Sketch 47.1 (45422) - http://www.bohemiancoding.com/sketch -->
    <title>Cloud+3</title>
    <desc>Created with Sketch.</desc>
    <defs></defs>
    <g id="Path" stroke="none" stroke-width="1" fill="none" fill-rule="evenodd">
        <g id="Amazon-Visual" transform="translate(-378.000000, -401.000000)">
            <g id="dialog" transform="translate(320.000000, 152.000000)">
                <g id="1" transform="translate(0.000000, 242.000000)">
                    <g id="Cloud+3" transform="translate(60.000000, 9.000000)">
                        <g id="Cloud-Copy" stroke="#747474" stroke-width="3" fill="#FFFFFF" fill-rule="nonzero">
                            <path d="M70.9625,21.895 C68.4709946,9.38875 57.3691398,0 44.0322581,0 C33.4433602,0 24.2467742,5.945 19.6668011,14.645 C8.63822581,15.805 0.064516129,25.04875 0.064516129,36.25 C0.064516129,48.24875 9.92061828,58 22.0483871,58 L69.6801075,58 C79.7926882,58 88,49.88 88,39.875 C88,30.305 80.4888441,22.5475 70.9625,21.895 Z" id="Shape"></path>
                        </g>
                        <circle id="Oval" stroke="#747474" stroke-width="3" fill="#FFFFFF" cx="73" cy="55" r="17"></circle>
                        <g id="Add-Copy" transform="translate(56.000000, 36.000000)">
                            <polygon id="Path" fill="#737373" points="12.5419355 13.9354839 10.683871 13.9354839 10.683871 17.6516129 6.96774194 17.6516129 6.96774194 19.5096774 10.683871 19.5096774 10.683871 23.2258065 12.5419355 23.2258065 12.5419355 19.5096774 16.2580645 19.5096774 16.2580645 17.6516129 12.5419355 17.6516129"></polygon>
                            <text id="3" font-family="NotoSans-Bold, Noto Sans" font-size="16" font-weight="bold" fill="#747474">
                                <tspan x="16.3290071" y="23.4193548">3</tspan>
                            </text>
                        </g>
                    </g>
                </g>
            </g>
        </g>
    </g>
</svg>