<?xml version="1.0" encoding="UTF-8" standalone="no"?>
<svg width="369px" height="388px" viewBox="0 0 369 388" version="1.1" xmlns="http://www.w3.org/2000/svg" xmlns:xlink="http://www.w3.org/1999/xlink">
    <!-- Generator: Sketch 49.3 (51167) - http://www.bohemiancoding.com/sketch -->
    <title>robot</title>
    <desc>Created with Sketch.</desc>
    <defs></defs>
    <g id="Orders" stroke="none" stroke-width="1" fill="none" fill-rule="evenodd">
        <g id="1-No-order" transform="translate(-511.000000, -365.000000)">
            <g id="Table" transform="translate(108.000000, 298.000000)">
                <g id="Illustration" transform="translate(374.000000, 56.000000)">
                    <g id="robot">
                        <path d="M206.472642,114.234096 C164.050761,114.234096 126.908856,133.919869 106.153086,163.44853 L306.61013,163.44853 C286.036428,133.737594 248.894523,114.234096 206.472642,114.234096 Z" id="Shape" stroke="#203451" stroke-width="0.5" fill="#FFFFFF" fill-rule="nonzero"></path>
                        <ellipse id="Oval" stroke="#203451" stroke-width="0.500020501" fill="#FFFFFF" fill-rule="nonzero" transform="translate(291.103075, 152.469925) rotate(-0.518833) translate(-291.103075, -152.469925) " cx="291.103075" cy="152.469925" rx="23.8279128" ry="23.8500718"></ellipse>
                        <rect id="Rectangle-path" stroke="#203451" stroke-width="0.5" fill="#FFFFFF" fill-rule="nonzero" x="164.399095" y="328.506169" width="18.9110419" height="3.02858055"></rect>
                        <rect id="Rectangle-path" stroke="#203451" stroke-width="0.5" fill="#FFFFFF" fill-rule="nonzero" x="164.399095" y="322.449008" width="18.9110419" height="3.02858055"></rect>
                        <rect id="Rectangle-path" stroke="#203451" stroke-width="0.5" fill="#FFFFFF" fill-rule="nonzero" x="164.399095" y="315.634702" width="18.9110419" height="3.02858055"></rect>
                        <rect id="Rectangle-path" stroke="#203451" stroke-width="0.5" fill="#FFFFFF" fill-rule="nonzero" x="164.399095" y="308.063251" width="18.9110419" height="3.02858055"></rect>
                        <rect id="Rectangle-path" stroke="#203451" stroke-width="0.5" fill="#FFFFFF" fill-rule="nonzero" x="164.399095" y="302.00609" width="18.9110419" height="3.02858055"></rect>
                        <rect id="Rectangle-path" stroke="#203451" stroke-width="0.5" fill="#FFFFFF" fill-rule="nonzero" x="164.399095" y="334.563331" width="18.9110419" height="3.02858055"></rect>
                        <rect id="Rectangle-path" stroke="#203451" stroke-width="0.5" fill="#FFFFFF" fill-rule="nonzero" x="229.453079" y="328.506169" width="18.9110419" height="3.02858055"></rect>
                        <rect id="Rectangle-path" stroke="#203451" stroke-width="0.5" fill="#FFFFFF" fill-rule="nonzero" x="229.453079" y="322.449008" width="18.9110419" height="3.02858055"></rect>
                        <rect id="Rectangle-path" stroke="#203451" stroke-width="0.5" fill="#FFFFFF" fill-rule="nonzero" x="229.453079" y="315.634702" width="18.9110419" height="3.02858055"></rect>
                        <rect id="Rectangle-path" stroke="#203451" stroke-width="0.5" fill="#FFFFFF" fill-rule="nonzero" x="229.453079" y="308.063251" width="18.9110419" height="3.02858055"></rect>
                        <rect id="Rectangle-path" stroke="#203451" stroke-width="0.5" fill="#FFFFFF" fill-rule="nonzero" x="229.453079" y="302.00609" width="18.9110419" height="3.02858055"></rect>
                        <rect id="Rectangle-path" stroke="#203451" stroke-width="0.5" fill="#FFFFFF" fill-rule="nonzero" x="229.453079" y="334.563331" width="18.9110419" height="3.02858055"></rect>
                        <ellipse id="Oval" stroke="#203451" stroke-width="0.500020501" fill="#FFFFFF" fill-rule="nonzero" transform="translate(120.147257, 152.469925) rotate(-89.481167) translate(-120.147257, -152.469925) " cx="120.147257" cy="152.469925" rx="23.8279128" ry="23.8500718"></ellipse>
                        <g id="Group" transform="translate(185.579462, 104.391209)" fill="#FFFFFF" fill-rule="nonzero" stroke="#203451" stroke-width="0.5">
                            <rect id="Rectangle-path" x="0.237738812" y="0.539700563" width="15.2477029" height="18.3498191"></rect>
                            <rect id="Rectangle-path" x="26.6915848" y="0.539700563" width="15.2477029" height="18.3498191"></rect>
                        </g>
                        <g id="Group" transform="translate(160.616886, 53.662485)" fill="#FFFFFF" stroke="#203451" stroke-width="0.5">
                            <path d="M11.2558521,0.00924576449 L79.8802408,0.00924576449 C85.8712589,1.44779189 90.409909,6.84233987 90.409909,13.1359792 L90.409909,37.5912633 C90.409909,44.9638122 84.2373449,51.0776333 76.7939588,51.0776333 L13.7974961,51.0776333 C6.35411007,51.0776333 0.181546002,44.9638122 0.181546002,37.5912633 L0.181546002,13.1359792 C0.181546002,6.6625216 4.90174205,1.08815536 11.2558521,0.00924576449 Z" id="Combined-Shape"></path>
                        </g>
                        <path d="M240.315581,53.6717304 C238.863213,47.7377277 233.598379,43.4220893 227.244269,43.4220893 C221.071705,43.4220893 215.806871,47.5579094 214.354503,53.3120939 L237.229299,53.3120939 C238.318575,53.3120939 239.407851,53.4919122 240.315581,53.6717304 Z" id="Shape" stroke="#203451" stroke-width="0.5" fill="#FFFFFF"></path>
                        <path d="M197.833817,53.3120939 C196.381449,47.5579094 191.116615,43.4220893 184.944051,43.4220893 C178.589941,43.4220893 173.325106,47.7377277 171.872738,53.4919122 C172.598922,53.3120939 173.506652,53.3120939 174.232837,53.3120939 L197.833817,53.3120939 Z" id="Shape" stroke="#203451" stroke-width="0.5" fill="#FFFFFF"></path>
                        <ellipse id="Oval" stroke="#203451" stroke-width="0.5" cx="185.201241" cy="79.7839919" rx="17.0199377" ry="17.0357656"></ellipse>
                        <ellipse id="Oval" stroke="#203451" stroke-width="0.5" cx="227.561975" cy="79.7839919" rx="17.0199377" ry="17.0357656"></ellipse>
                        <ellipse id="Oval" fill="#203451" fill-rule="nonzero" cx="184.82302" cy="79.4054193" rx="3.78220837" ry="3.78572568"></ellipse>
                        <ellipse id="Oval" fill="#203451" fill-rule="nonzero" cx="227.940195" cy="79.4054193" rx="3.78220837" ry="3.78572568"></ellipse>
                        <ellipse id="Oval" stroke="#203451" stroke-width="0.5" fill="#FFFFFF" fill-rule="nonzero" cx="206.381608" cy="213.041536" rx="94.9334302" ry="95.0217147"></ellipse>
                        <g id="Group" transform="translate(103.127319, 111.074226)" fill-rule="nonzero">
                            <ellipse id="Oval" fill="#EAEAEA" transform="translate(103.771644, 103.743406) rotate(-34.870912) translate(-103.771644, -103.743406) " cx="103.771644" cy="103.743406" rx="74.3171304" ry="74.6221209"></ellipse>
                            <g transform="translate(8.121496, 7.528970)">
                                <g transform="translate(-0.000000, -0.000000)">
                                    <g transform="translate(-0.000000, -0.000000)">
                                        <ellipse id="Oval" fill="#04274C" transform="translate(95.647241, 96.219728) rotate(-34.870912) translate(-95.647241, -96.219728) " cx="95.6472406" cy="96.2197277" rx="68.5025872" ry="68.7837154"></ellipse>
                                        <g opacity="0.12" transform="translate(27.168948, 27.368935)" fill="#F2F2F2" id="Shape">
                                            <path d="M29.3996801,12.4631054 C-1.67338471,34.1757938 -9.30536555,77.0537917 12.3185801,108.254377 L124.617727,29.4318451 C102.993781,-1.76874069 60.2910311,-9.24958289 29.3996801,12.4631054 Z"></path>
                                        </g>
                                    </g>
                                    <path d="M95.8188148,148.942861 C86.5514095,148.942861 77.8291457,144.381372 72.5594446,136.71807 C69.6520233,132.5215 68.0165989,127.595091 67.6531712,122.668683 L67.6531712,121.756385 L101.815371,97.8541822 L85.0976988,97.8541822 L71.8325893,106.977161 L69.4703095,106.429782 L69.8337372,104.240267 L81.2817084,96.3945057 L79.4645701,95.1172888 C76.5571488,93.1102335 74.1948691,90.7382592 72.3777308,88.0013657 C63.4737531,75.0467365 66.7446021,57.3481586 79.4645701,48.4076399 C84.1891297,45.1233677 89.8222584,43.2987721 95.4553871,43.2987721 C96.5456701,43.2987721 97.6359531,43.2987721 98.726236,43.4812316 L99.0896637,43.4812316 C99.9982328,43.6636912 100.906802,43.8461508 101.815371,44.0286103 L102.360513,44.2110699 C103.269082,44.3935295 104.359365,44.7584486 105.267934,45.1233677 C106.358217,45.4882869 107.4485,46.0356656 108.357069,46.4005847 C109.265638,46.9479634 110.174207,47.4953421 111.082776,48.0427208 L111.809632,48.5900995 C112.354773,48.9550186 113.081629,49.5023973 113.62677,50.049776 C113.808484,50.2322356 114.171912,50.4146951 114.353625,50.7796143 C114.898767,51.326993 115.443908,51.8743717 115.98905,52.4217504 L116.715905,53.1515886 C117.44276,54.0638864 118.169616,54.7937247 118.714757,55.7060225 C121.622179,59.9025926 123.257603,64.8290008 123.621031,69.7554091 L123.621031,70.6677069 L89.6405446,94.5699101 L105.994789,94.5699101 L119.441613,85.2644722 L121.803892,85.8118509 L121.440465,88.0013657 L109.81078,95.847127 L111.627918,97.124344 C114.535339,99.1313992 116.897619,101.503374 118.896471,104.422727 C123.257603,110.626352 124.893027,118.107194 123.439317,125.588036 C122.16732,133.068878 117.987902,139.637423 111.809632,143.833993 C111.082776,144.381372 110.355921,144.746291 109.629066,145.293669 L109.083924,145.658588 C108.357069,146.023508 107.811927,146.205967 107.266786,146.570886 L106.358217,146.935805 C105.813075,147.118265 105.267934,147.300725 104.722792,147.665644 L103.995937,147.848103 C103.269082,148.030563 102.542226,148.213022 101.815371,148.395482 C101.633657,148.395482 101.27023,148.577942 101.088516,148.577942 L100.725088,148.577942 C100.36166,148.577942 99.816519,148.760401 99.4530913,148.760401 C99.0896637,148.760401 98.5445222,148.942861 98.1810945,148.942861 C97.8176669,148.942861 97.4542392,148.942861 96.9090977,148.942861 L96.5456701,148.942861 C96.3639562,148.942861 96.1822424,148.942861 95.8188148,148.942861 Z M70.7423063,123.216062 L70.9240201,124.12836 C71.4691616,127.960011 72.9228723,131.609202 75.1034382,134.711015 C79.8279978,141.462018 87.4599786,145.476129 95.8188148,145.476129 C96.1822424,145.476129 96.3639562,145.476129 96.5456701,145.476129 L96.9090977,145.476129 C97.2725254,145.476129 97.6359531,145.476129 97.9993807,145.476129 C98.3628084,145.476129 98.726236,145.476129 99.0896637,145.293669 C99.4530913,145.293669 99.816519,145.11121 100.179947,145.11121 C100.179947,145.11121 100.906802,144.92875 101.088516,144.92875 C101.815371,144.746291 102.360513,144.563831 103.087368,144.381372 L103.450796,144.198912 C104.177651,144.016452 104.722792,143.833993 105.267934,143.469074 L105.813075,143.286614 C106.358217,142.921695 106.903358,142.739235 107.4485,142.556776 L108.175355,142.191857 C108.90221,141.826938 109.447352,141.462018 110.174207,140.91464 C121.440465,133.068878 124.347886,117.377356 116.534191,105.882403 C114.353625,102.780591 111.446204,100.043697 107.993641,98.2191014 L107.085072,97.6717227 L70.7423063,123.216062 Z M95.6371009,46.7655038 C90.5491137,46.7655038 85.6428403,48.2251803 81.4634222,51.1445334 C76.0120074,54.9761843 72.3777308,60.6324308 71.105734,67.3834347 C69.8337372,73.9519791 71.2874478,80.7029831 75.1034382,86.17677 C77.2840042,89.2785826 80.1914254,92.0154761 83.6439882,93.8400718 L84.5525573,94.2049909 L120.713609,69.0255708 L120.531896,68.113273 C119.986754,64.2816221 118.533043,60.6324308 116.352477,57.5306182 C115.807336,56.8007799 115.262195,55.8884821 114.535339,55.3411034 C114.353625,55.1586438 113.990198,54.7937247 113.990198,54.7937247 C113.445056,54.246346 113.081629,53.8814269 112.536487,53.3340482 C112.354773,53.1515886 111.991346,52.9691291 111.809632,52.7866695 C111.26449,52.4217504 110.719349,51.8743717 110.174207,51.5094525 L109.447352,51.1445334 C108.720497,50.5971547 107.993641,50.2322356 107.266786,49.8673164 C106.176503,49.3199377 105.449648,48.9550186 104.541079,48.5900995 C103.632509,48.2251803 102.72394,48.0427208 101.815371,47.6778016 L101.451943,47.6778016 C100.725088,47.4953421 99.816519,47.3128825 98.9079499,47.3128825 L98.5445222,47.3128825 C97.6359531,47.1304229 96.7273839,47.1304229 95.8188148,47.1304229 L95.6371009,47.1304229 L95.6371009,46.7655038 Z" id="Shape" fill="#FFFFFF"></path>
                                </g>
                                <path d="M123.802744,70.6677069 L123.802744,69.7554091 C123.439317,64.6465413 121.803892,59.720133 118.896471,55.7060225 C118.35133,54.7937247 117.624474,54.0638864 116.897619,53.1515886 L116.170764,52.4217504 C115.625622,51.8743717 115.080481,51.326993 114.535339,50.7796143 C114.353625,50.5971547 113.990198,50.2322356 113.808484,50.049776 C113.263342,49.5023973 112.718201,49.1374782 111.991346,48.5900995 L111.26449,48.0427208 C110.537635,47.4953421 109.629066,46.9479634 108.538783,46.4005847 C107.630214,45.853206 106.539931,45.4882869 105.449648,45.1233677 C104.541079,44.7584486 103.450796,44.3935295 102.542226,44.2110699 L101.997085,44.0286103 C101.088516,43.8461508 100.179947,43.6636912 99.2713775,43.4812316 L98.9079499,43.4812316 C97.8176669,43.2987721 96.7273839,43.2987721 95.6371009,43.2987721 C89.8222584,43.2987721 84.3708435,45.1233677 79.6462839,48.4076399 C66.7446021,57.3481586 63.655467,75.0467365 72.5594446,88.0013657 C74.3765829,90.7382592 76.9205765,93.1102335 79.6462839,95.1172888 L81.4634222,96.3945057 L70.015451,104.240267 L69.6520233,106.429782 L72.0143031,106.977161 L85.2794127,97.8541822 L93.6382488,97.8541822 L98.1810945,94.5699101 L89.8222584,94.5699101 L123.802744,70.6677069 Z M84.3708435,94.2049909 L83.4622744,93.8400718 C80.0097116,92.0154761 77.1022903,89.2785826 74.9217244,86.17677 C71.105734,80.7029831 69.6520233,73.9519791 70.9240201,67.3834347 C72.1960169,60.8148904 75.8302935,54.9761843 81.2817084,51.1445334 C85.4611265,48.2251803 90.3673999,46.7655038 95.4553871,46.7655038 L95.6371009,46.7655038 C96.5456701,46.7655038 97.4542392,46.7655038 98.3628084,46.9479634 L98.726236,46.9479634 C99.6348052,47.1304229 100.36166,47.1304229 101.27023,47.3128825 L101.633657,47.3128825 C102.542226,47.4953421 103.450796,47.8602612 104.359365,48.2251803 C105.267934,48.5900995 106.176503,48.9550186 107.085072,49.5023973 C107.811927,49.8673164 108.538783,50.4146951 109.265638,50.7796143 L109.992493,51.1445334 C110.537635,51.5094525 111.082776,51.8743717 111.627918,52.4217504 C111.809632,52.6042099 112.173059,52.7866695 112.354773,52.9691291 C112.899915,53.3340482 113.263342,53.8814269 113.808484,54.4288056 C113.808484,54.4288056 114.353625,54.9761843 114.353625,54.9761843 C114.898767,55.7060225 115.625622,56.4358608 116.170764,57.1656991 C118.35133,60.2675117 119.80504,63.916703 120.350182,67.7483539 L120.531896,68.6606517 L84.3708435,94.2049909 Z" id="Shape" fill="#EAEAEA"></path>
                            </g>
                        </g>
                        <g id="arm" transform="translate(343.844731, 84.908213) rotate(-91.000000) translate(-343.844731, -84.908213) translate(279.925409, 31.529481)" stroke="#203451">
                            <g>
                                <rect id="Rectangle-path" stroke-width="0.500001562" transform="translate(78.769231, 62.606383) rotate(-53.273342) translate(-78.769231, -62.606383) " x="71.1952663" y="55.3971631" width="15.147929" height="14.4184397"></rect>
                                <path d="M127.834615,75.1498921 C128.380014,72.2461786 127.834615,62.9905917 122.198831,58.6350213 C111.29086,49.9238807 95.292504,51.7387017 86.5661277,62.6276275 L82.0211401,68.4350545 C73.2947638,79.3239803 75.1127589,95.2944048 86.0207292,104.005545 C91.8383134,108.542598 100.928289,106.909259 103.655281,105.638884 L95.8379025,99.468493 C87.4751252,92.7536554 86.0207292,80.594355 92.7473109,72.2461786 C99.4738926,63.8980021 111.654459,62.4461454 120.017237,69.1609829 L127.834615,75.1498921 Z" id="Shape" stroke-width="0.5" fill="#FFFFFF" fill-rule="nonzero"></path>
                                <path d="M12.5195136,18.9887485 C18.1442226,14.0589772 20.865856,7.12078068 20.6844138,0 L82.556213,46.7415347 L63.8676637,72.8510638 L0,24.6488562 C4.53605566,24.1011038 8.89066909,22.2752626 12.5195136,18.9887485 Z" id="Shape" stroke-width="0.5" fill="#FFFFFF" fill-rule="nonzero"></path>
                            </g>
                        </g>
                        <g id="arm" transform="translate(81.413117, 76.154869) rotate(206.000000) translate(-81.413117, -76.154869) translate(17.493796, 22.776137)" stroke="#203451">
                            <g>
                                <rect id="Rectangle-path" stroke-width="0.500001562" transform="translate(78.769231, 62.606383) rotate(-53.273342) translate(-78.769231, -62.606383) " x="71.1952663" y="55.3971631" width="15.147929" height="14.4184397"></rect>
                                <path d="M127.834615,75.1498921 C128.380014,72.2461786 127.834615,62.9905917 122.198831,58.6350213 C111.29086,49.9238807 95.292504,51.7387017 86.5661277,62.6276275 L82.0211401,68.4350545 C73.2947638,79.3239803 75.1127589,95.2944048 86.0207292,104.005545 C91.8383134,108.542598 100.928289,106.909259 103.655281,105.638884 L95.8379025,99.468493 C87.4751252,92.7536554 86.0207292,80.594355 92.7473109,72.2461786 C99.4738926,63.8980021 111.654459,62.4461454 120.017237,69.1609829 L127.834615,75.1498921 Z" id="Shape" stroke-width="0.5" fill="#FFFFFF" fill-rule="nonzero"></path>
                                <path d="M12.5195136,18.9887485 C18.1442226,14.0589772 20.865856,7.12078068 20.6844138,0 L82.556213,46.7415347 L63.8676637,72.8510638 L0,24.6488562 C4.53605566,24.1011038 8.89066909,22.2752626 12.5195136,18.9887485 Z" id="Shape" stroke-width="0.5" fill="#FFFFFF" fill-rule="nonzero"></path>
                            </g>
                        </g>
                        <rect id="Rectangle-path" stroke="#203451" stroke-width="0.5" fill="#FFFFFF" fill-rule="nonzero" x="164.399095" y="366.363426" width="18.9110419" height="3.02858055"></rect>
                        <rect id="Rectangle-path" stroke="#203451" stroke-width="0.5" fill="#FFFFFF" fill-rule="nonzero" x="164.399095" y="360.306265" width="18.9110419" height="3.02858055"></rect>
                        <rect id="Rectangle-path" stroke="#203451" stroke-width="0.5" fill="#FFFFFF" fill-rule="nonzero" x="164.399095" y="353.491959" width="18.9110419" height="3.02858055"></rect>
                        <rect id="Rectangle-path" stroke="#203451" stroke-width="0.5" fill="#FFFFFF" fill-rule="nonzero" x="164.399095" y="347.434798" width="18.9110419" height="3.02858055"></rect>
                        <rect id="Rectangle-path" stroke="#203451" stroke-width="0.5" fill="#FFFFFF" fill-rule="nonzero" x="164.399095" y="340.620492" width="18.9110419" height="3.02858055"></rect>
                        <rect id="Rectangle-path" stroke="#203451" stroke-width="0.5" fill="#FFFFFF" fill-rule="nonzero" x="164.399095" y="373.934878" width="18.9110419" height="3.02858055"></rect>
                        <rect id="Rectangle-path" stroke="#203451" stroke-width="0.5" fill="#FFFFFF" fill-rule="nonzero" x="229.453079" y="366.363426" width="18.9110419" height="3.02858055"></rect>
                        <rect id="Rectangle-path" stroke="#203451" stroke-width="0.5" fill="#FFFFFF" fill-rule="nonzero" x="229.453079" y="360.306265" width="18.9110419" height="3.02858055"></rect>
                        <rect id="Rectangle-path" stroke="#203451" stroke-width="0.5" fill="#FFFFFF" fill-rule="nonzero" x="229.453079" y="353.491959" width="18.9110419" height="3.02858055"></rect>
                        <rect id="Rectangle-path" stroke="#203451" stroke-width="0.5" fill="#FFFFFF" fill-rule="nonzero" x="229.453079" y="347.434798" width="18.9110419" height="3.02858055"></rect>
                        <rect id="Rectangle-path" stroke="#203451" stroke-width="0.5" fill="#FFFFFF" fill-rule="nonzero" x="229.453079" y="340.620492" width="18.9110419" height="3.02858055"></rect>
                        <rect id="Rectangle-path" stroke="#203451" stroke-width="0.5" fill="#FFFFFF" fill-rule="nonzero" x="229.453079" y="373.934878" width="18.9110419" height="3.02858055"></rect>
                        <path d="M202.794794,397.98386 C202.97762,397.444876 202.97762,396.72623 202.97762,396.187245 C202.97762,394.929614 202.794794,393.851645 202.611969,392.773675 C202.611969,392.414352 202.429143,392.055029 202.246317,391.516044 C202.063491,390.797398 201.69784,390.078752 201.515014,389.539767 C201.332188,389.000783 201.149362,388.641459 200.783711,388.102475 C200.418059,387.56349 200.235233,387.204167 199.869582,386.665182 C198.406976,384.688905 196.578718,382.712628 194.384808,381.275336 C194.201983,381.095674 194.019157,381.095674 193.836331,380.916012 C192.922202,380.377028 192.190899,380.017705 191.27677,379.47872 C191.093944,379.47872 190.911118,379.299058 190.728293,379.299058 C189.814164,378.939735 188.717209,378.580412 187.80308,378.221089 C185.426345,377.502443 182.683958,376.963458 179.941572,376.963458 L165.498335,376.963458 C162.755948,376.963458 160.196387,377.502443 157.819652,378.221089 C156.722697,378.580412 155.808568,378.939735 154.711614,379.299058 C154.528788,379.299058 154.345962,379.47872 154.345962,379.47872 C153.431833,379.838043 152.517704,380.377028 151.603575,380.916012 C151.42075,380.916012 151.42075,381.095674 151.237924,381.095674 C148.861189,382.712628 146.850105,384.688905 145.387499,386.844844 C145.021847,387.204167 144.839021,387.56349 144.656196,388.102475 C144.290544,388.641459 144.107718,389.180444 143.924892,389.719429 C143.742067,390.258413 143.376415,390.97706 143.193589,391.516044 C143.010764,392.055029 142.827938,392.414352 142.827938,392.953337 C142.645112,394.031306 142.462286,395.109276 142.462286,396.187245 C142.462286,396.187245 142.462286,396.366906 142.462286,396.366906 C142.462286,396.905891 142.462286,397.624537 142.645112,398.163522 L202.794794,398.163522 L202.794794,397.98386 Z" id="Shape" stroke="#203451" stroke-width="0.5" fill="#FFFFFF" fill-rule="nonzero"></path>
                        <path d="M268.60522,397.98386 C268.788046,397.444876 268.788046,396.72623 268.788046,396.187245 C268.788046,394.929614 268.60522,393.851645 268.422394,392.773675 C268.422394,392.414352 268.239568,392.055029 268.056743,391.516044 C267.873917,390.797398 267.508265,390.078752 267.32544,389.539767 C267.142614,389.000783 266.959788,388.641459 266.594136,388.102475 C266.228485,387.56349 266.045659,387.204167 265.680008,386.665182 C264.217401,384.688905 262.389143,382.712628 260.195234,381.275336 C260.012408,381.095674 259.829582,381.095674 259.646757,380.916012 C258.732628,380.377028 258.001325,380.017705 257.087196,379.47872 C256.90437,379.47872 256.721544,379.299058 256.538718,379.299058 C255.624589,378.939735 254.527635,378.580412 253.613506,378.221089 C251.236771,377.502443 248.494384,376.963458 245.751997,376.963458 L231.30876,376.963458 C228.566374,376.963458 226.006813,377.502443 223.630078,378.221089 C222.533123,378.580412 221.618994,378.939735 220.522039,379.299058 C220.339213,379.299058 220.156388,379.47872 220.156388,379.47872 C219.242259,379.838043 218.32813,380.377028 217.414001,380.916012 C217.231175,380.916012 217.231175,381.095674 217.048349,381.095674 C214.671614,382.712628 212.660531,384.688905 211.197924,386.844844 C210.832273,387.204167 210.649447,387.56349 210.466621,388.102475 C210.10097,388.641459 209.918144,389.180444 209.735318,389.719429 C209.552492,390.258413 209.186841,390.97706 209.004015,391.516044 C208.821189,392.055029 208.638363,392.414352 208.638363,392.953337 C208.455538,394.031306 208.272712,395.109276 208.272712,396.187245 C208.272712,396.187245 208.272712,396.366906 208.272712,396.366906 C208.272712,396.905891 208.272712,397.624537 208.455538,398.163522 L268.60522,398.163522 L268.60522,397.98386 Z" id="Shape" stroke="#203451" stroke-width="0.5" fill="#FFFFFF" fill-rule="nonzero"></path>
                    </g>
                </g>
            </g>
        </g>
    </g>
</svg>