<?xml version="1.0" encoding="UTF-8" standalone="no"?>
<svg width="69px" height="69px" viewBox="0 0 69 69" version="1.1" xmlns="http://www.w3.org/2000/svg" xmlns:xlink="http://www.w3.org/1999/xlink">
    <!-- Generator: Sketch 47.1 (45422) - http://www.bohemiancoding.com/sketch -->
    <title>$ icon</title>
    <desc>Created with Sketch.</desc>
    <defs></defs>
    <g id="Path" stroke="none" stroke-width="1" fill="none" fill-rule="evenodd">
        <g id="Amazon-Visual" transform="translate(-830.000000, -397.000000)">
            <g id="dialog" transform="translate(320.000000, 152.000000)">
                <g id="3" transform="translate(447.000000, 247.000000)">
                    <g id="$-icon" transform="translate(65.000000, 0.000000)">
                        <circle id="Oval-3" stroke="#747474" stroke-width="3" fill="#FFFFFF" cx="32.5" cy="32.5" r="32.5"></circle>
                        <g id="ic_money_off_black_24px" transform="translate(11.000000, 11.000000)">
                            <polygon id="Shape" points="0 0 43 0 43 43 0 43"></polygon>
                            <path d="M21.8816121,11.9333333 C25.0201511,11.9333333 26.1838791,13.4444444 26.2896725,15.6666667 L30.186398,15.6666667 C30.0629723,12.6088889 28.2115869,9.8 24.5264484,8.89333333 L24.5264484,5 L19.2367758,5 L19.2367758,8.84 C18.302267,9.05333333 17.4206549,9.37333333 16.627204,9.8 L19.2191436,12.4133333 C19.9420655,12.1111111 20.8236776,11.9333333 21.8816121,11.9333333 Z M9.23929471,6.88444444 L7,9.14222222 L13.0654912,15.2577778 C13.0654912,18.9555556 15.8161209,20.9644444 19.9596977,22.2088889 L26.1486146,28.4488889 C25.5491184,29.3022222 24.2972292,30.0666667 21.8816121,30.0666667 C18.2493703,30.0666667 16.8211587,28.4311111 16.627204,26.3333333 L12.7481108,26.3333333 C12.9596977,30.2266667 15.8513854,32.4133333 19.2367758,33.1422222 L19.2367758,37 L24.5264484,37 L24.5264484,33.1777778 C26.2191436,32.8577778 27.7355164,32.2 28.8463476,31.1866667 L32.7607053,35.1333333 L35,32.8755556 L9.23929471,6.88444444 Z" id="Shape" fill-opacity="0.54" fill="#000000" fill-rule="nonzero"></path>
                        </g>
                    </g>
                </g>
            </g>
        </g>
    </g>
</svg>