<?xml version="1.0" encoding="iso-8859-1"?>
<!-- Generator: Adobe Illustrator 22.0.1, SVG Export Plug-In . SVG Version: 6.00 Build 0)  -->
<svg version="1.1" xmlns="http://www.w3.org/2000/svg" xmlns:xlink="http://www.w3.org/1999/xlink" x="0px" y="0px"
	 viewBox="0 0 399.1 379" style="enable-background:new 0 0 399.1 379;" xml:space="preserve">
<style type="text/css">
	.st0{display:none;}
	.st1{display:inline;fill:#04274C;}
	.st2{fill:#FFFFFF;}
	.st3{fill:#04274C;}
</style>
<g id="Fond" class="st0">
	<rect y="-51" class="st1" width="1920" height="469"/>
</g>
<g id="Calque_1">
	<g>
		
			<ellipse transform="matrix(0.7071 -0.7071 0.7071 0.7071 -76.5447 198.1284)" class="st2" cx="200.9" cy="191.5" rx="173.2" ry="173.2"/>
	</g>
	<g>
		<g>
			<g>
				<g>
					
						<ellipse transform="matrix(0.7071 -0.7071 0.7071 0.7071 -76.5447 198.1284)" class="st3" cx="200.9" cy="191.5" rx="162.9" ry="162.9"/>
				</g>
				<g>
					<path class="st2" d="M201,307c-20.5,0-39.7-10-51.3-26.7c-6.3-9.1-10.1-19.8-10.9-31l-0.1-2l75.3-52.2l-36.7-0.1l-29.1,20.1
						l-5-1l0.9-4.8l25.1-17.3l-4-2.8c-6.2-4.3-11.5-9.5-15.7-15.6c-19.5-28.2-12.5-67.1,15.7-86.6c10.4-7.2,22.6-11,35.4-11
						c2.6,0,4.9,0.2,7.3,0.5l0.9,0.1c2.1,0.3,4.1,0.7,6.1,1.1l1,0.2c2.2,0.6,4.3,1.2,6.5,2c2.5,0.9,4.8,1.9,6.8,3
						c2.2,1.2,4,2.3,5.8,3.4l1.6,1.1c1.3,1,2.7,2,3.9,3c0.6,0.5,1.2,1,1.7,1.5c1.2,1.1,2.4,2.3,3.5,3.5l1.5,1.6
						c1.7,2,3.2,3.8,4.4,5.6c6.3,9.1,10.1,19.8,10.9,31l0.1,2l-75.3,52.2l35.8,0.1l29.6-20.5l5,1l-0.9,4.8L232,190.7l4,2.7
						c6.4,4.3,11.8,9.7,16.1,15.9c9.5,13.6,13,30.2,10.1,46.6c-3,16.4-12.1,30.6-25.8,40.1c-1.6,1.1-3.2,2.1-4.9,3l-1.3,0.7
						c-1.5,0.8-2.7,1.4-3.9,1.9l-1.8,0.8c-1.2,0.5-2.5,1-3.8,1.4l-1.5,0.5c-1.6,0.5-3.2,0.9-4.9,1.3c-0.6,0.1-1.1,0.2-1.7,0.3
						L212,306c-0.9,0.2-1.9,0.3-2.8,0.4c-0.9,0.1-1.8,0.2-2.7,0.3c-0.9,0.1-1.7,0.1-2.6,0.2l-0.6,0c-0.7,0-1.4,0.1-2.1,0.1H201z
						 M146.2,250.8l0.3,2c1.2,8.4,4.4,16.5,9.2,23.4c10.3,14.8,27.3,23.7,45.4,23.7c0.7,0,1.2,0,1.8-0.1l0.6,0
						c0.8,0,1.7-0.1,2.5-0.2c0.8-0.1,1.5-0.2,2.3-0.3c0.9-0.1,1.7-0.3,2.6-0.4c0,0,1.6-0.3,2.1-0.4c1.5-0.3,2.9-0.7,4.4-1.1l0.8-0.3
						c1.5-0.5,2.7-0.9,3.8-1.4l1.3-0.5c1.4-0.6,2.4-1.1,3.4-1.7l1.4-0.8c1.4-0.8,2.9-1.7,4.3-2.7c25-17.3,31.2-51.7,13.9-76.7
						c-4.8-6.9-11.2-12.7-18.7-16.8l-1.8-1L146.2,250.8z M200.7,83c-11.3,0-22.1,3.4-31.3,9.8c-12.1,8.4-20.2,21-22.8,35.5
						c-2.6,14.5,0.5,29.2,8.9,41.2c4.8,6.9,11.2,12.7,18.7,16.8l1.8,1l79.6-55.2l-0.3-2.1c-1.2-8.4-4.4-16.5-9.2-23.4
						c-1.2-1.8-2.6-3.4-3.9-5c-0.3-0.3-1.3-1.4-1.3-1.4c-1-1.1-2.1-2.1-3.1-3.1c-0.5-0.5-1-0.9-1.5-1.3c-1.1-1-2.3-1.8-3.5-2.7
						l-1.4-1c-1.6-1.1-3.2-2-4.9-2.9c-2.2-1.1-4.2-2-6.2-2.8c-1.9-0.7-3.9-1.3-5.9-1.8l-0.8-0.2c-1.8-0.4-3.6-0.8-5.4-1l-0.8-0.1
						c-2-0.2-4.1-0.4-6.1-0.4H200.7z"/>
				</g>
			</g>
			<path class="st2" d="M263,135.7l-0.1-2c-0.8-11.2-4.5-21.9-10.9-31c-1.3-1.8-2.7-3.7-4.4-5.6l-1.5-1.6c-1.1-1.2-2.3-2.4-3.5-3.5
				c-0.6-0.5-1.2-1-1.7-1.5c-1.3-1.1-2.6-2.1-3.9-3l-1.6-1.1c-1.8-1.2-3.6-2.3-5.8-3.4c-2.1-1.1-4.3-2.1-6.9-3
				c-2.1-0.8-4.3-1.4-6.5-2l-1-0.2c-2-0.5-4-0.8-6.1-1.1l-0.9-0.1c-2.5-0.3-4.7-0.4-7.3-0.5c-12.7,0-25,3.8-35.4,11
				c-28.2,19.6-35.3,58.4-15.7,86.6c4.2,6.1,9.5,11.3,15.7,15.6l4,2.8l-25.1,17.3l-0.9,4.8l5,1l29.1-20.1l18.3,0l10.1-7.1l-18.3,0
				L263,135.7z M176,187.3l-1.8-1c-7.4-4.1-13.9-9.9-18.7-16.8c-8.4-12.1-11.5-26.7-8.9-41.2c2.6-14.5,10.7-27.1,22.8-35.5
				c9.2-6.4,20.1-9.8,31.3-9.8h0.4c2,0,4.1,0.2,6.1,0.4l0.8,0.1c1.8,0.2,3.6,0.6,5.4,1l0.8,0.2c2,0.5,4,1.1,5.9,1.8
				c2,0.8,4,1.6,6.2,2.8c1.7,0.9,3.3,1.8,4.9,2.9l1.4,1c1.2,0.8,2.4,1.7,3.5,2.7c0.5,0.4,1,0.9,1.5,1.3c1.1,1,2.1,2,3.1,3.1
				c0,0,1,1.1,1.3,1.4c1.4,1.6,2.7,3.2,3.9,5c4.8,6.9,8,15,9.2,23.4l0.3,2.1L176,187.3z"/>
		</g>
	</g>
</g>
</svg>
