<?xml version="1.0" encoding="utf-8"?>
<!-- Generator: Adobe Illustrator 21.1.0, SVG Export Plug-In . SVG Version: 6.00 Build 0)  -->
<svg version="1.1" id="Calque_1" xmlns="http://www.w3.org/2000/svg" xmlns:xlink="http://www.w3.org/1999/xlink" x="0px" y="0px"
	 viewBox="0 0 1617 2160" style="enable-background:new 0 0 1617 2160;" xml:space="preserve">
<style type="text/css">
	.st0{fill:#FFFFFF;}
</style>
<g>
	<path class="st0" d="M1412.5,1119.6v-310c0,0-293.5,0-513.4,0c23.5,14,50,28.8,79.5,45.2l150.6,84.7
		c97.2,53.6,176.8,113.8,238.9,180.1L1412.5,1119.6z"/>
	<path class="st0" d="M226.1,1667.8c109.2,71.9,267.3,123.6,436.9,123.6c186.9,0,359.4-100.5,359.4-287.4
		c0-126.5-83.4-212.7-273.1-313.3c-224.2-120.7-393.8-276-393.8-505.9C355.5,313.9,677.4,81,1068.5,81
		c215.6,0,356.5,54.6,431.2,97.7l-109.2,278.9c-63.3-34.5-192.6-89.1-350.7-86.2c-212.7,0-333.5,123.6-333.5,253
		c0,132.2,109.3,209.8,290.4,313.3c235.7,123.6,376.6,278.9,376.6,514.5c0,388.2-313.3,626.8-747.4,626.8
		c-235.7,0-428.3-66.2-514.6-135.1L226.1,1667.8z"/>
</g>
</svg>
