<?xml version="1.0" encoding="utf-8"?>
<!-- Generator: Adobe Illustrator 23.0.6, SVG Export Plug-In . SVG Version: 6.00 Build 0)  -->
<svg version="1.1" id="Calque_1" xmlns="http://www.w3.org/2000/svg" xmlns:xlink="http://www.w3.org/1999/xlink" x="0px" y="0px"
	 viewBox="0 0 399.1 379" style="enable-background:new 0 0 399.1 379;" xml:space="preserve">
<style type="text/css">
	.st0{display:none;}
	.st1{display:inline;fill:#04274C;}
	.st2{fill:#FFFFFF;}
</style>
<g id="Fond" class="st0">
	<rect class="st1" width="399.1" height="379"/>
</g>
<path id="outilne" class="st2" d="M323.4,69C255.8,1.4,146.1,1.4,78.5,69s-67.6,177.3,0,244.9s177.3,67.6,244.9,0
	S391,136.7,323.4,69z M309.3,299.9c-59.9,59.9-156.9,59.9-216.7,0C32.7,240,32.7,143,92.5,83.1c59.9-59.9,156.9-59.9,216.7,0
	S369.1,240,309.3,299.9z"/>
<g id="S">
	<path class="st2" d="M201.1,313.4c-21.6,0-41.9-10.6-54.1-28.2c-6.6-9.6-10.7-20.9-11.5-32.7l-0.1-2.1l72.6-50.3l-31.8-4.9
		l-30.7,21.2l-8.5-3.1l-0.1-9.4l26.5-18.3l0,3.5c-6.5-4.5-12.1-10-16.6-16.5c-20.6-29.8-13.2-70.8,16.6-91.4
		c11-7.6,23.8-11.6,37.4-11.6c2.7,0,5.2,0.2,7.7,0.5l0.9,0.1c2.2,0.3,4.3,0.7,6.4,1.2l1.1,0.2c2.3,0.6,4.5,1.3,6.9,2.1
		c2.6,0.9,5.1,2,7.2,3.2c2.3,1.3,4.2,2.4,6.1,3.6l1.7,1.2c1.4,1.1,2.8,2.1,4.1,3.2c0.6,0.5,1.3,1.1,1.8,1.6c1.3,1.2,2.5,2.4,3.7,3.7
		l1.6,1.7c1.8,2.1,3.4,4,4.6,5.9c6.6,9.6,10.7,20.9,11.5,32.7l0.1,2.1l-70.7,48.2l28.9,6l29.2-19.1l9.3,3.3l0.8,9.8l-22.6,16l-3-3.1
		c6.8,4.5,12.5,10.2,17,16.8c10,14.3,13.7,31.9,10.7,49.2c-3.2,17.3-12.8,32.3-27.2,42.3c-1.7,1.2-3.4,2.2-5.2,3.2l-1.4,0.7
		c-1.6,0.8-2.8,1.5-4.1,2l-1.9,0.8c-1.3,0.5-2.6,1.1-4,1.5l-1.6,0.5c-1.7,0.5-3.4,0.9-5.2,1.4c-0.6,0.1-1.2,0.2-1.8,0.3l-0.6,0.1
		c-0.9,0.2-2,0.3-3,0.4c-0.9,0.1-1.9,0.2-2.8,0.3c-0.9,0.1-1.8,0.1-2.7,0.2h-0.6c-0.7,0-1.5,0.1-2.2,0.1H201.1z M154.4,256.5
		l0.3,1.7c1,7.3,4.8,13.4,9,19.4c9,12.9,23.8,20.7,39.6,20.7c0.6,0,1,0,1.6-0.1h0.5c0.7,0,1.5-0.1,2.2-0.2c0.7-0.1,1.3-0.2,2-0.3
		c0.8-0.1,1.5-0.3,2.3-0.3c0,0,1.4-0.3,1.8-0.3c1.3-0.3,2.5-0.6,3.8-1l0.7-0.3c1.3-0.4,2.4-0.8,3.3-1.2l1.1-0.4c1.2-0.5,2.1-1,3-1.5
		l1.2-0.7c1.2-0.7,2.5-1.5,3.7-2.4c21.8-15.1,27.2-45.1,12.1-66.9c-4.2-6-9.8-11.1-16.3-14.6l-1.6-0.9L154.4,256.5z M199.8,84.2
		c-9.9,0-19.4,3-27.5,8.6c-10.6,7.4-17.8,18.5-20.1,31.2c-2.3,12.8,0.4,25.7,7.8,36.3c4.2,6.1,9.9,11.2,16.5,14.8l1.6,0.9l70.1-48.6
		l-0.3-1.8c-1.1-7.4-3.9-14.5-8.1-20.6c-1.1-1.6-2.3-3-3.4-4.4c-0.3-0.3-1.1-1.2-1.1-1.2c-0.9-1-1.8-1.8-2.7-2.7
		c-0.4-0.4-0.9-0.8-1.3-1.1c-1-0.9-2-1.6-3.1-2.4l-1.2-0.9c-1.4-1-2.8-1.8-4.3-2.6c-1.9-1-3.7-1.8-5.5-2.5c-1.7-0.6-3.4-1.1-5.2-1.6
		l-0.7-0.2c-1.6-0.4-3.2-0.7-4.8-0.9l-0.7-0.1c-1.8-0.2-3.6-0.4-5.4-0.4L199.8,84.2L199.8,84.2z"/>
</g>
</svg>
