<svg id="Calque_1" data-name="Calque 1" xmlns="http://www.w3.org/2000/svg" viewBox="0 0 201.12 35.82"><defs><style>.cls-1{fill:#04274c;}.cls-2{fill:#eaeaea;}.cls-3{opacity:0.12;}.cls-4{fill:#f2f2f2;}.cls-5{fill:#fff;}</style></defs><path class="cls-1" d="M49.3,21.23a6.26,6.26,0,0,0-1.55-.78c-.57-.2-1.16-.39-1.75-.56s-1-.31-1.53-.48a6.86,6.86,0,0,1-1.3-.56,2.86,2.86,0,0,1-.91-.76A1.67,1.67,0,0,1,41.92,17V17a2.25,2.25,0,0,1,.91-1.82,3.78,3.78,0,0,1,2.43-.73,7.34,7.34,0,0,1,2.34.41,9.74,9.74,0,0,1,2.17,1.07l.75-1.18A9.21,9.21,0,0,0,48,13.53a8.85,8.85,0,0,0-2.72-.45,6.15,6.15,0,0,0-2,.3,4.41,4.41,0,0,0-1.52.85,3.83,3.83,0,0,0-1,1.27,3.63,3.63,0,0,0-.36,1.62v.06a2.93,2.93,0,0,0,.44,1.64,3.81,3.81,0,0,0,1.16,1.1,7.16,7.16,0,0,0,1.63.74l1.8.55c.51.15,1,.3,1.46.46a5.65,5.65,0,0,1,1.24.57,2.92,2.92,0,0,1,.86.81,1.89,1.89,0,0,1,.31,1.09v.06a2.37,2.37,0,0,1-1,2,4.14,4.14,0,0,1-2.52.75,7.73,7.73,0,0,1-2.73-.51A10,10,0,0,1,40.58,25l-.84,1.12a9.9,9.9,0,0,0,2.79,1.56,9.18,9.18,0,0,0,3.22.61,6.43,6.43,0,0,0,2-.3,5.07,5.07,0,0,0,1.61-.86,3.94,3.94,0,0,0,1.08-1.35,3.89,3.89,0,0,0,.39-1.76V24a3.06,3.06,0,0,0-.41-1.63A4,4,0,0,0,49.3,21.23Z" transform="translate(-0.88 -1.04)"/><path class="cls-1" d="M63.63,14.75a5.26,5.26,0,0,0-1.85-1.25,6.43,6.43,0,0,0-2.47-.45,5.53,5.53,0,0,0-3.28.89,6.77,6.77,0,0,0-2,2.18l0-9.06H52.62l0,21H54V19.57a5.74,5.74,0,0,1,.4-2.11,4.87,4.87,0,0,1,1.08-1.66,5.07,5.07,0,0,1,3.63-1.46,4.35,4.35,0,0,1,3.44,1.38,5.26,5.26,0,0,1,1.21,3.64l0,8.71h1.41l0-9a7.29,7.29,0,0,0-.39-2.43A5.32,5.32,0,0,0,63.63,14.75Z" transform="translate(-0.88 -1.04)"/><path class="cls-1" d="M79.45,15.36a7.67,7.67,0,0,0-2.37-1.66,7.7,7.7,0,0,0-6,0,7.53,7.53,0,0,0-2.4,1.68,7.63,7.63,0,0,0-2.15,5.37v.06a7.75,7.75,0,0,0,.55,2.93A7.56,7.56,0,0,0,71,27.81a7.23,7.23,0,0,0,3,.63,7.35,7.35,0,0,0,3-.62,7.58,7.58,0,0,0,2.41-1.68A7.49,7.49,0,0,0,81,23.7a7.61,7.61,0,0,0,.57-2.93v-.06A7.6,7.6,0,0,0,81,17.78,7.4,7.4,0,0,0,79.45,15.36Zm.62,5.46a6.65,6.65,0,0,1-.45,2.44,5.94,5.94,0,0,1-3.15,3.33,6.12,6.12,0,0,1-4.8,0,5.84,5.84,0,0,1-1.94-1.35,6.27,6.27,0,0,1-1.28-2A6.57,6.57,0,0,1,68,20.75v-.06a6.77,6.77,0,0,1,.46-2.43,6,6,0,0,1,1.24-2,6.12,6.12,0,0,1,1.91-1.35A5.88,5.88,0,0,1,74,14.43a5.91,5.91,0,0,1,4.31,1.84,6.13,6.13,0,0,1,1.29,2,6.58,6.58,0,0,1,.45,2.48Z" transform="translate(-0.88 -1.04)"/><path class="cls-1" d="M95.15,15.13a6.85,6.85,0,0,0-2.28-1.5,7,7,0,0,0-2.6-.53,6.31,6.31,0,0,0-2,.3,6.92,6.92,0,0,0-1.64.79,7.34,7.34,0,0,0-1.34,1.15,9.83,9.83,0,0,0-1.07,1.38V13.44H82.82l0,19.27h1.41l0-7.77a10,10,0,0,0,1,1.33,7.83,7.83,0,0,0,1.32,1.12,6.19,6.19,0,0,0,1.66.78,6.42,6.42,0,0,0,2,.29,6.6,6.6,0,0,0,2.6-.52,7.16,7.16,0,0,0,2.29-1.52A7.42,7.42,0,0,0,96.76,24a8,8,0,0,0,.63-3.2v-.06a8,8,0,0,0-.62-3.21A7.36,7.36,0,0,0,95.15,15.13Zm.74,5.72a7.22,7.22,0,0,1-.45,2.63,5.79,5.79,0,0,1-1.23,2,5.18,5.18,0,0,1-1.83,1.23,5.92,5.92,0,0,1-2.27.43,5.57,5.57,0,0,1-2.23-.46A6.24,6.24,0,0,1,86,25.36a6.16,6.16,0,0,1-1.33-2,6.22,6.22,0,0,1-.5-2.58v-.06a6.21,6.21,0,0,1,.51-2.55,6.13,6.13,0,0,1,3.26-3.28,5.7,5.7,0,0,1,4.44,0,5.44,5.44,0,0,1,1.84,1.26,5.86,5.86,0,0,1,1.25,2,7,7,0,0,1,.46,2.61Z" transform="translate(-0.88 -1.04)"/><path class="cls-1" d="M111.42,15.15a7.32,7.32,0,0,0-2.29-1.5,7,7,0,0,0-2.6-.52,6.31,6.31,0,0,0-2,.3,6.73,6.73,0,0,0-1.64.79,7,7,0,0,0-1.34,1.15,10.65,10.65,0,0,0-1.07,1.38V13.47H99.08l0,19.28h1.41l0-7.77a9.29,9.29,0,0,0,1,1.33,7.52,7.52,0,0,0,1.32,1.12,6.13,6.13,0,0,0,1.65.78,6.87,6.87,0,0,0,4.62-.24,7.21,7.21,0,0,0,2.29-1.52A7.51,7.51,0,0,0,113,24a7.86,7.86,0,0,0,.63-3.21v-.05a8,8,0,0,0-.61-3.21A7.68,7.68,0,0,0,111.42,15.15Zm.73,5.73a7.25,7.25,0,0,1-.45,2.63,5.79,5.79,0,0,1-1.23,2,5.18,5.18,0,0,1-1.83,1.23,5.87,5.87,0,0,1-2.26.43,5.79,5.79,0,0,1-2.24-.46,6.19,6.19,0,0,1-3.25-3.27,6.38,6.38,0,0,1-.5-2.58v-.06a6.26,6.26,0,0,1,.51-2.56,6.53,6.53,0,0,1,1.34-2,6.24,6.24,0,0,1,1.92-1.29,5.79,5.79,0,0,1,2.24-.46,5.88,5.88,0,0,1,2.2.45,5.76,5.76,0,0,1,1.85,1.27,6.23,6.23,0,0,1,1.25,2,7.31,7.31,0,0,1,.45,2.62Z" transform="translate(-0.88 -1.04)"/><rect class="cls-1" x="108.9" y="20.12" width="14.67" height="1.41" transform="translate(94.32 135.99) rotate(-89.9)"/><rect class="cls-1" x="115.29" y="7.83" width="1.93" height="1.75" transform="translate(106.47 123.91) rotate(-89.9)"/><path class="cls-1" d="M130,14.87a5.13,5.13,0,0,0-1.85-1.25,6.43,6.43,0,0,0-2.47-.45,5.51,5.51,0,0,0-3.28.88,6.87,6.87,0,0,0-2,2.18V13.5H119l0,14.67h1.41V19.69a5.6,5.6,0,0,1,.4-2.12,4.92,4.92,0,0,1,2.69-2.73,5.25,5.25,0,0,1,2-.38A4.35,4.35,0,0,1,129,15.83a5.25,5.25,0,0,1,1.2,3.64v8.72h1.41v-9a7,7,0,0,0-.38-2.43A5.32,5.32,0,0,0,130,14.87Z" transform="translate(-0.88 -1.04)"/><path class="cls-1" d="M169.5,15.46a6.24,6.24,0,0,0-2.11-1.63,6.42,6.42,0,0,0-2.79-.6,6.34,6.34,0,0,0-2.76.6,7,7,0,0,0-2.2,1.64,7.66,7.66,0,0,0-1.48,2.43,8.36,8.36,0,0,0-.53,3v.06a8.32,8.32,0,0,0,.57,3.14,7.28,7.28,0,0,0,1.57,2.42,7.1,7.1,0,0,0,5,2.1,7.17,7.17,0,0,0,3.53-.78,10.12,10.12,0,0,0,2.56-2l-1-.86a8.72,8.72,0,0,1-2.12,1.64,6,6,0,0,1-2.93.65,5.66,5.66,0,0,1-2.09-.39A5.35,5.35,0,0,1,161,25.72a6.4,6.4,0,0,1-1.3-1.81,6.48,6.48,0,0,1-.6-2.43l12.17,0a1.57,1.57,0,0,0,0-.27v-.3a9.55,9.55,0,0,0-.47-3A7.37,7.37,0,0,0,169.5,15.46Zm-10.38,4.75a6.77,6.77,0,0,1,.56-2.25,6.2,6.2,0,0,1,1.17-1.81A4.92,4.92,0,0,1,162.51,15a5.24,5.24,0,0,1,4.27,0,4.71,4.71,0,0,1,1.59,1.27,5.72,5.72,0,0,1,1,1.81,8.06,8.06,0,0,1,.44,2.14Z" transform="translate(-0.88 -1.04)"/><path class="cls-1" d="M184.36,15.48a6.32,6.32,0,0,0-4.9-2.22,6.41,6.41,0,0,0-2.77.6,7,7,0,0,0-2.2,1.64A7.48,7.48,0,0,0,173,17.92a8.17,8.17,0,0,0-.54,3V21a8.27,8.27,0,0,0,.57,3.13,7.49,7.49,0,0,0,1.57,2.42,7.1,7.1,0,0,0,2.3,1.56,7.19,7.19,0,0,0,2.76.55,7.28,7.28,0,0,0,3.53-.78,10.25,10.25,0,0,0,2.55-2l-1-.86a8.73,8.73,0,0,1-2.13,1.63,6,6,0,0,1-2.93.66,5.7,5.7,0,0,1-2.09-.39,5.51,5.51,0,0,1-1.77-1.13A6.3,6.3,0,0,1,174,21.51l12.16,0a1.78,1.78,0,0,0,0-.28V21a9.25,9.25,0,0,0-.47-3A7.5,7.5,0,0,0,184.36,15.48ZM174,20.24a6.75,6.75,0,0,1,.55-2.26,6.56,6.56,0,0,1,1.17-1.81A5.32,5.32,0,0,1,177.36,15a5.05,5.05,0,0,1,2-.43,5.11,5.11,0,0,1,2.22.48,4.87,4.87,0,0,1,1.6,1.27,5.74,5.74,0,0,1,1,1.82,8.4,8.4,0,0,1,.45,2.14Z" transform="translate(-0.88 -1.04)"/><path class="cls-1" d="M200.59,7.31l0,9.5a10,10,0,0,0-1-1.33,7.83,7.83,0,0,0-1.32-1.12,6.19,6.19,0,0,0-1.66-.78,6.91,6.91,0,0,0-4.61.23,7.16,7.16,0,0,0-2.29,1.52A7.53,7.53,0,0,0,188,17.75a8,8,0,0,0-.63,3.2V21a7.86,7.86,0,0,0,.62,3.21,7.36,7.36,0,0,0,1.62,2.4,6.85,6.85,0,0,0,2.28,1.5,7,7,0,0,0,2.6.53,6.31,6.31,0,0,0,2-.3,6.92,6.92,0,0,0,1.64-.79,7.28,7.28,0,0,0,1.33-1.15A14.25,14.25,0,0,0,200.56,25v3.28H202l0-21Zm.06,13.7a6.26,6.26,0,0,1-.51,2.56,6.35,6.35,0,0,1-1.34,2,6.24,6.24,0,0,1-1.92,1.29,5.7,5.7,0,0,1-4.44,0,5.44,5.44,0,0,1-1.84-1.26,5.86,5.86,0,0,1-1.25-2,7,7,0,0,1-.46-2.61V20.9a7.22,7.22,0,0,1,.45-2.63,5.79,5.79,0,0,1,1.23-2,5.18,5.18,0,0,1,1.83-1.23,5.88,5.88,0,0,1,2.27-.43,5.74,5.74,0,0,1,2.23.46,6.24,6.24,0,0,1,1.92,1.29,6.16,6.16,0,0,1,1.33,2,6.38,6.38,0,0,1,.5,2.58Z" transform="translate(-0.88 -1.04)"/><path class="cls-1" d="M158.6,14.22l-.64-.65h-5.12V12.15q0-3.7,3-3.71a5.82,5.82,0,0,1,1.06.09,10.52,10.52,0,0,1,1.13.29V7.5a5.76,5.76,0,0,0-1-.26,6.91,6.91,0,0,0-1.18-.09,4.16,4.16,0,0,0-3.08,1.15,5.22,5.22,0,0,0-1.3,3.82v1.44h-5.29v2.93a10.76,10.76,0,0,0-1.06-1.24,7,7,0,0,0-1.35-1.05,7.09,7.09,0,0,0-1.68-.72,7.27,7.27,0,0,0-2-.28,7.3,7.3,0,0,0-4.85,1.88A6.75,6.75,0,0,0,133,20.14v.06a6.61,6.61,0,0,0,.6,2.85,7,7,0,0,0,1.6,2.17A7.26,7.26,0,0,0,142,26.84a6.67,6.67,0,0,0,1.67-.74A8.5,8.5,0,0,0,145,25a10.33,10.33,0,0,0,1.09-1.29v2.13a6.39,6.39,0,0,1-.44,2.46,4.83,4.83,0,0,1-3,2.84,6.85,6.85,0,0,1-2.32.35,9.41,9.41,0,0,1-5.93-2.08l-.84,1.15a11,11,0,0,0,6.74,2.29,8.8,8.8,0,0,0,3-.5,6.44,6.44,0,0,0,2.33-1.45A6.22,6.22,0,0,0,147,28.79a7.58,7.58,0,0,0,.5-2.84l0-11.11h3.88l0,13.38h1.41l0-13.38H158Zm-12.39,6a4.92,4.92,0,0,1-.52,2.29,5.72,5.72,0,0,1-1.37,1.75,6.12,6.12,0,0,1-1.95,1.13,6.43,6.43,0,0,1-2.25.4,5.69,5.69,0,0,1-2.16-.42,5.81,5.81,0,0,1-1.82-1.15,5.46,5.46,0,0,1-1.23-1.77,5.53,5.53,0,0,1-.46-2.28v-.06a5.67,5.67,0,0,1,.45-2.31A5.18,5.18,0,0,1,136.13,16a5.51,5.51,0,0,1,1.82-1.1,6.16,6.16,0,0,1,2.19-.39,6.67,6.67,0,0,1,2.25.4,5.94,5.94,0,0,1,1.94,1.12,5.69,5.69,0,0,1,1.37,1.77,5,5,0,0,1,.51,2.3Z" transform="translate(-0.88 -1.04)"/><circle class="cls-2" cx="17.91" cy="17.91" r="17.91"/><circle class="cls-1" cx="17.91" cy="17.91" r="16.5"/><g class="cls-3"><path class="cls-4" d="M9.38,5.39a16.5,16.5,0,0,0-4.13,23L32.34,9.53A16.51,16.51,0,0,0,9.38,5.39Z" transform="translate(-0.88 -1.04)"/></g><path class="cls-5" d="M18.78,31.59A6.79,6.79,0,0,1,12,25.26L12,25l8.25-5.7-4,0L13,21.52l-.55-.12.1-.52L15.33,19l-.43-.3A6.8,6.8,0,0,1,18.79,6.3a6.73,6.73,0,0,1,.8,0h.1l.67.13.11,0c.24.06.48.14.71.22a6.5,6.5,0,0,1,.75.33,7,7,0,0,1,.63.38l.18.12.43.34.19.16a4.78,4.78,0,0,1,.39.39l.16.17a6.3,6.3,0,0,1,.49.62,6.71,6.71,0,0,1,1.18,3.39l0,.22-8.26,5.7,3.92,0,3.25-2.24.55.12L25,17l-2.76,1.9.44.3a6.82,6.82,0,0,1,0,11.22q-.27.18-.54.33l-.14.07c-.16.09-.29.15-.42.21l-.2.08-.41.16-.17.05a4.58,4.58,0,0,1-.53.14l-.19,0H20l-.3.05-.3,0-.29,0h-.31Zm-6-6.16,0,.22a6,6,0,0,0,6,5.16h.54l.25,0,.28,0,.23,0a4.21,4.21,0,0,0,.48-.12l.09,0a3.76,3.76,0,0,0,.42-.16l.14-.05.38-.19.15-.08.47-.29a6,6,0,0,0,1.54-8.4,6.11,6.11,0,0,0-2-1.84l-.2-.11Zm6-18.35a5.92,5.92,0,0,0-3.43,1.06,6.05,6.05,0,0,0-1.54,8.39,6.13,6.13,0,0,0,2,1.85l.2.11,8.73-6,0-.22a6.05,6.05,0,0,0-1-2.56,6.17,6.17,0,0,0-.43-.55A2.06,2.06,0,0,0,23.18,9c-.11-.12-.22-.23-.34-.34l-.17-.15-.38-.29-.15-.11c-.18-.12-.36-.22-.54-.32a4.79,4.79,0,0,0-.67-.3,5.38,5.38,0,0,0-.65-.2l-.09,0-.59-.11h-.09c-.22,0-.44,0-.67,0Z" transform="translate(-0.88 -1.04)"/><path class="cls-2" d="M25.6,12.85l0-.22A6.71,6.71,0,0,0,24.4,9.24a6.3,6.3,0,0,0-.49-.62l-.16-.17a4.78,4.78,0,0,0-.39-.39l-.19-.16-.43-.34-.18-.12a7,7,0,0,0-.63-.38,6.5,6.5,0,0,0-.75-.33c-.23-.08-.47-.16-.71-.22l-.11,0-.67-.13h-.1A6.77,6.77,0,0,0,14.92,7.5a6.78,6.78,0,0,0,0,11.19l.43.3-2.75,1.89-.1.52.55.12,3.19-2.2h2l1.11-.77h-2Zm-9.54,5.64-.2-.11a6.13,6.13,0,0,1-2-1.85,6.05,6.05,0,0,1,1.54-8.39,5.92,5.92,0,0,1,3.43-1.06h.05c.23,0,.45,0,.67,0h.09l.59.11.09,0a5.38,5.38,0,0,1,.65.2,4.79,4.79,0,0,1,.67.3c.18.1.36.2.54.32l.15.11.38.29.17.15c.12.11.23.22.34.34a2.06,2.06,0,0,1,.15.15,6.17,6.17,0,0,1,.43.55,6.05,6.05,0,0,1,1,2.56l0,.22Z" transform="translate(-0.88 -1.04)"/></svg>