<svg width="1008" height="900" viewBox="0 0 1008 900" fill="none" xmlns="http://www.w3.org/2000/svg">
<g clip-path="url(#clip0)">
<g filter="url(#filter0_d)">
<g filter="url(#filter1_dddd)">
<rect x="130" y="235" width="660" height="430" rx="8" fill="white"/>
</g>
<path d="M260.5 352C260.5 348.962 262.962 346.5 266 346.5H439H612C615.038 346.5 617.5 348.962 617.5 352V370C617.5 373.038 615.038 375.5 612 375.5H266C262.962 375.5 260.5 373.038 260.5 370V352Z" fill="white" stroke="#ECF2F9"/>
<path d="M281.863 364.902L279.91 362.949C279.812 362.871 279.695 362.812 279.578 362.812H279.266C279.793 362.129 280.125 361.27 280.125 360.312C280.125 358.086 278.289 356.25 276.062 356.25C273.816 356.25 272 358.086 272 360.312C272 362.559 273.816 364.375 276.062 364.375C277 364.375 277.859 364.062 278.562 363.516V363.848C278.562 363.965 278.602 364.082 278.699 364.18L280.633 366.113C280.828 366.309 281.121 366.309 281.297 366.113L281.844 365.566C282.039 365.391 282.039 365.098 281.863 364.902ZM276.062 362.812C274.676 362.812 273.562 361.699 273.562 360.312C273.562 358.945 274.676 357.812 276.062 357.812C277.43 357.812 278.562 358.945 278.562 360.312C278.562 361.699 277.43 362.812 276.062 362.812Z" fill="#06284B"/>
<path d="M230 316H790V260H510H230V316Z" fill="#F0F8FF"/>
<path d="M289 282C289 278.686 291.686 276 295 276H319H343C346.314 276 349 278.686 349 282V294C349 297.314 346.314 300 343 300H295C291.686 300 289 297.314 289 294V282Z" fill="#217AFF"/>
<path d="M359 282C359 278.686 361.686 276 365 276H389H413C416.314 276 419 278.686 419 282V294C419 297.314 416.314 300 413 300H365C361.686 300 359 297.314 359 294V282Z" fill="white"/>
<path d="M429 282C429 278.686 431.686 276 435 276H459H483C486.314 276 489 278.686 489 282V294C489 297.314 486.314 300 483 300H435C431.686 300 429 297.314 429 294V282Z" fill="white"/>
<path d="M499 282C499 278.686 501.686 276 505 276H529H553C556.314 276 559 278.686 559 282V294C559 297.314 556.314 300 553 300H505C501.686 300 499 297.314 499 294V282Z" fill="white"/>
<g filter="url(#filter2_dddd)">
<path d="M130 243C130 238.582 133.582 235 138 235H230V665H138C133.582 665 130 661.418 130 657V243Z" fill="#06284B"/>
</g>
<rect x="145" y="251" width="65" height="7" rx="3.5" fill="white"/>
<rect x="145" y="288" width="51" height="4" rx="2" fill="white"/>
<rect x="145" y="308" width="47" height="4" rx="2" fill="white"/>
<rect x="145" y="328" width="30" height="4" rx="2" fill="white"/>
<rect x="145" y="348" width="34" height="4" rx="2" fill="white"/>
<rect x="145" y="368" width="35" height="4" rx="2" fill="white"/>
<rect x="145" y="388" width="23" height="4" rx="2" fill="white"/>
<rect x="145" y="408" width="43" height="4" rx="2" fill="white"/>
<g clip-path="url(#clip1)">
<rect x="260" y="386" width="358" height="279" rx="6" fill="white"/>
<path d="M260.5 392C260.5 388.962 262.962 386.5 266 386.5H439H612C615.038 386.5 617.5 388.962 617.5 392V430C617.5 433.038 615.038 435.5 612 435.5H266C262.962 435.5 260.5 433.038 260.5 430V392Z" fill="#F9FBFD" stroke="#ECF2F9"/>
<rect x="558.5" y="399.5" width="39" height="23" rx="5.5" fill="white" stroke="#ECF2F9"/>
<rect x="576" y="402" width="18" height="18" rx="4" fill="#217AFF"/>
<line x1="585" y1="408" x2="585" y2="414" stroke="#FBFDFF" stroke-linecap="round"/>
<path d="M296.5 393C296.5 392.172 297.172 391.5 298 391.5H316H334C334.828 391.5 335.5 392.172 335.5 393V429C335.5 429.828 334.828 430.5 334 430.5H298C297.172 430.5 296.5 429.828 296.5 429V393Z" fill="white" stroke="#ECF2F9"/>
<rect x="270.5" y="403.5" width="15" height="15" rx="3.5" fill="white"/>
<rect x="270.5" y="403.5" width="15" height="15" rx="3.5" stroke="#ECF2F9"/>
<path d="M538 426V396" stroke="#ECF2F9" stroke-linecap="round" stroke-linejoin="round"/>
<path d="M474 426V396" stroke="#ECF2F9" stroke-linecap="round" stroke-linejoin="round"/>
<rect x="494" y="399" width="24" height="24" rx="12" fill="#F1FBF9"/>
<path d="M504.179 414.844C504.374 415.039 504.706 415.039 504.902 414.844L510.644 409.102C510.839 408.906 510.839 408.574 510.644 408.379L509.941 407.676C509.745 407.48 509.433 407.48 509.238 407.676L504.55 412.363L502.343 410.176C502.148 409.98 501.835 409.98 501.64 410.176L500.937 410.879C500.741 411.074 500.741 411.406 500.937 411.602L504.179 414.844Z" fill="#18B599"/>
<rect x="346" y="409" width="93" height="4" rx="2" fill="#D9E6F2"/>
<path d="M260 452C260 448.686 262.686 446 266 446H439H612C615.314 446 618 448.686 618 452V490C618 493.314 615.314 496 612 496H266C262.686 496 260 493.314 260 490V452Z" fill="white"/>
<rect x="558.5" y="459.5" width="39" height="23" rx="5.5" fill="white" stroke="#ECF2F9"/>
<rect x="576" y="462" width="18" height="18" rx="4" fill="#217AFF"/>
<line x1="585" y1="468" x2="585" y2="474" stroke="#FBFDFF" stroke-linecap="round"/>
<path d="M296.5 453C296.5 452.172 297.172 451.5 298 451.5H316H334C334.828 451.5 335.5 452.172 335.5 453V489C335.5 489.828 334.828 490.5 334 490.5H298C297.172 490.5 296.5 489.828 296.5 489V453Z" fill="white" stroke="#ECF2F9"/>
<rect x="270.5" y="463.5" width="15" height="15" rx="3.5" fill="white"/>
<rect x="270.5" y="463.5" width="15" height="15" rx="3.5" stroke="#ECF2F9"/>
<path d="M538 486V456" stroke="#ECF2F9" stroke-linecap="round" stroke-linejoin="round"/>
<path d="M474 486V456" stroke="#ECF2F9" stroke-linecap="round" stroke-linejoin="round"/>
<rect x="494" y="459" width="24" height="24" rx="12" fill="#F1FBF9"/>
<path d="M504.179 474.844C504.374 475.039 504.706 475.039 504.902 474.844L510.644 469.102C510.839 468.906 510.839 468.574 510.644 468.379L509.941 467.676C509.745 467.48 509.433 467.48 509.238 467.676L504.55 472.363L502.343 470.176C502.148 469.98 501.835 469.98 501.64 470.176L500.937 470.879C500.741 471.074 500.741 471.406 500.937 471.602L504.179 474.844Z" fill="#18B599"/>
<rect x="346" y="469" width="93" height="4" rx="2" fill="#D9E6F2"/>
<path d="M260 512C260 508.686 262.686 506 266 506H439H612C615.314 506 618 508.686 618 512V550C618 553.314 615.314 556 612 556H266C262.686 556 260 553.314 260 550V512Z" fill="white"/>
<rect x="558.5" y="519.5" width="39" height="23" rx="5.5" fill="white" stroke="#ECF2F9"/>
<rect x="561" y="522" width="18" height="18" rx="4" fill="#D4DCE4"/>
<circle cx="570" cy="531" r="3.5" stroke="white"/>
<path d="M296.5 513C296.5 512.172 297.172 511.5 298 511.5H316H334C334.828 511.5 335.5 512.172 335.5 513V549C335.5 549.828 334.828 550.5 334 550.5H298C297.172 550.5 296.5 549.828 296.5 549V513Z" fill="white" stroke="#ECF2F9"/>
<rect x="270.5" y="523.5" width="15" height="15" rx="3.5" fill="white"/>
<rect x="270.5" y="523.5" width="15" height="15" rx="3.5" stroke="#ECF2F9"/>
<path d="M538 546V516" stroke="#ECF2F9" stroke-linecap="round" stroke-linejoin="round"/>
<path d="M474 546V516" stroke="#ECF2F9" stroke-linecap="round" stroke-linejoin="round"/>
<rect x="494" y="519" width="24" height="24" rx="12" fill="#F1FBF9"/>
<path d="M504.179 534.844C504.374 535.039 504.706 535.039 504.902 534.844L510.644 529.102C510.839 528.906 510.839 528.574 510.644 528.379L509.941 527.676C509.745 527.48 509.433 527.48 509.238 527.676L504.55 532.363L502.343 530.176C502.148 529.98 501.835 529.98 501.64 530.176L500.937 530.879C500.741 531.074 500.741 531.406 500.937 531.602L504.179 534.844Z" fill="#18B599"/>
<rect x="346" y="529" width="93" height="4" rx="2" fill="#D9E6F2"/>
<path d="M260 572C260 568.686 262.686 566 266 566H439H612C615.314 566 618 568.686 618 572V610C618 613.314 615.314 616 612 616H266C262.686 616 260 613.314 260 610V572Z" fill="white"/>
<rect x="558.5" y="579.5" width="39" height="23" rx="5.5" fill="white" stroke="#ECF2F9"/>
<rect x="561" y="582" width="18" height="18" rx="4" fill="#D4DCE4"/>
<circle cx="570" cy="591" r="3.5" stroke="white"/>
<path d="M296.5 573C296.5 572.172 297.172 571.5 298 571.5H316H334C334.828 571.5 335.5 572.172 335.5 573V609C335.5 609.828 334.828 610.5 334 610.5H298C297.172 610.5 296.5 609.828 296.5 609V573Z" fill="white" stroke="#ECF2F9"/>
<rect x="270.5" y="583.5" width="15" height="15" rx="3.5" fill="white"/>
<rect x="270.5" y="583.5" width="15" height="15" rx="3.5" stroke="#ECF2F9"/>
<path d="M538 606V576" stroke="#ECF2F9" stroke-linecap="round" stroke-linejoin="round"/>
<path d="M474 606V576" stroke="#ECF2F9" stroke-linecap="round" stroke-linejoin="round"/>
<rect x="494" y="579" width="24" height="24" rx="12" fill="#FFF1F1"/>
<path d="M511.288 594.863L506.601 586.719C506.249 586.113 505.331 586.094 504.98 586.719L500.292 594.863C499.941 595.469 500.39 596.25 501.113 596.25H510.468C511.191 596.25 511.64 595.488 511.288 594.863ZM505.8 593.164C506.288 593.164 506.698 593.574 506.698 594.062C506.698 594.57 506.288 594.961 505.8 594.961C505.292 594.961 504.902 594.57 504.902 594.062C504.902 593.574 505.292 593.164 505.8 593.164ZM504.941 589.941C504.921 589.805 505.038 589.688 505.175 589.688H506.406C506.542 589.688 506.659 589.805 506.64 589.941L506.503 592.598C506.484 592.734 506.386 592.812 506.269 592.812H505.312C505.195 592.812 505.097 592.734 505.077 592.598L504.941 589.941Z" fill="#EB4B4B"/>
<rect x="346" y="589" width="93" height="4" rx="2" fill="#D9E6F2"/>
<path d="M260 632C260 628.686 262.686 626 266 626H439H612C615.314 626 618 628.686 618 632V670C618 673.314 615.314 676 612 676H266C262.686 676 260 673.314 260 670V632Z" fill="white"/>
<rect x="558.5" y="639.5" width="39" height="23" rx="5.5" fill="white" stroke="#ECF2F9"/>
<rect x="576" y="642" width="18" height="18" rx="4" fill="#217AFF"/>
<line x1="585" y1="648" x2="585" y2="654" stroke="#FBFDFF" stroke-linecap="round"/>
<path d="M296.5 633C296.5 632.172 297.172 631.5 298 631.5H316H334C334.828 631.5 335.5 632.172 335.5 633V669C335.5 669.828 334.828 670.5 334 670.5H298C297.172 670.5 296.5 669.828 296.5 669V633Z" fill="white" stroke="#ECF2F9"/>
<rect x="270.5" y="643.5" width="15" height="15" rx="3.5" fill="white"/>
<rect x="270.5" y="643.5" width="15" height="15" rx="3.5" stroke="#ECF2F9"/>
<path d="M538 666V636" stroke="#ECF2F9" stroke-linecap="round" stroke-linejoin="round"/>
<path d="M474 666V636" stroke="#ECF2F9" stroke-linecap="round" stroke-linejoin="round"/>
<rect x="494" y="639" width="24" height="24" rx="12" fill="#F1FBF9"/>
<path d="M504.179 654.844C504.374 655.039 504.706 655.039 504.902 654.844L510.644 649.102C510.839 648.906 510.839 648.574 510.644 648.379L509.941 647.676C509.745 647.48 509.433 647.48 509.238 647.676L504.55 652.363L502.343 650.176C502.148 649.98 501.835 649.98 501.64 650.176L500.937 650.879C500.741 651.074 500.741 651.406 500.937 651.602L504.179 654.844Z" fill="#18B599"/>
<rect x="346" y="649" width="93" height="4" rx="2" fill="#D9E6F2"/>
</g>
</g>
<g clip-path="url(#clip2)" filter="url(#filter3_d)">
<g filter="url(#filter4_d)">
<rect x="648" y="213" width="230" height="474" rx="8" fill="#F5F8FB"/>
</g>
<g filter="url(#filter5_d)">
<rect x="668" y="349" width="190" height="57" rx="8" fill="white"/>
<rect x="698" y="363" width="28" height="4" rx="2" fill="#D9E6F2"/>
<rect x="678" y="359" width="12" height="12" rx="6" fill="#68A4FF"/>
<rect x="678.5" y="376.5" width="169" height="19" rx="3.5" fill="white" stroke="#ECF2F9"/>
<path d="M836.801 387.227C836.906 387.332 837.082 387.332 837.188 387.227L839.473 384.953C839.578 384.836 839.578 384.66 839.473 384.555L839.203 384.285C839.098 384.18 838.922 384.18 838.805 384.285L837 386.09L835.184 384.285C835.066 384.18 834.891 384.18 834.785 384.285L834.516 384.555C834.41 384.66 834.41 384.836 834.516 384.953L836.801 387.227Z" fill="#D9E6F2"/>
<rect x="686" y="384" width="113" height="4" rx="2" fill="#D9E6F2"/>
</g>
<g filter="url(#filter6_d)">
<rect x="668" y="507" width="190" height="57" rx="8" fill="white"/>
<rect x="698" y="521" width="28" height="4" rx="2" fill="#D9E6F2"/>
<rect x="678" y="517" width="12" height="12" rx="6" fill="#68A4FF"/>
<rect x="678.5" y="534.5" width="169" height="19" rx="3.5" fill="white" stroke="#ECF2F9"/>
<path d="M836.801 545.227C836.906 545.332 837.082 545.332 837.188 545.227L839.473 542.953C839.578 542.836 839.578 542.66 839.473 542.555L839.203 542.285C839.098 542.18 838.922 542.18 838.805 542.285L837 544.09L835.184 542.285C835.066 542.18 834.891 542.18 834.785 542.285L834.516 542.555C834.41 542.66 834.41 542.836 834.516 542.953L836.801 545.227Z" fill="#D9E6F2"/>
<rect x="686" y="542" width="113" height="4" rx="2" fill="#D9E6F2"/>
</g>
<g filter="url(#filter7_d)">
<rect x="668" y="416" width="190" height="81" rx="8" fill="white"/>
<rect x="698" y="430" width="28" height="4" rx="2" fill="#D9E6F2"/>
<rect x="678" y="426" width="12" height="12" rx="6" fill="#68A4FF"/>
<rect x="678.5" y="443.5" width="169" height="19" rx="3.5" fill="white" stroke="#ECF2F9"/>
<rect x="678.5" y="467.5" width="169" height="19" rx="3.5" fill="#DAF3EF" stroke="#18B599"/>
<path d="M836.801 454.227C836.906 454.332 837.082 454.332 837.188 454.227L839.473 451.953C839.578 451.836 839.578 451.66 839.473 451.555L839.203 451.285C839.098 451.18 838.922 451.18 838.805 451.285L837 453.09L835.184 451.285C835.066 451.18 834.891 451.18 834.785 451.285L834.516 451.555C834.41 451.66 834.41 451.836 834.516 451.953L836.801 454.227Z" fill="#D9E6F2"/>
<rect x="686" y="451" width="113" height="4" rx="2" fill="#D9E6F2"/>
</g>
<rect x="839" y="283" width="19" height="4" rx="2" fill="#D9E6F2"/>
<rect x="812" y="297" width="46" height="4" rx="2" fill="#D9E6F2"/>
<rect x="843" y="311" width="15" height="4" rx="2" fill="#D9E6F2"/>
<rect x="840" y="325" width="18" height="4" rx="2" fill="#D9E6F2"/>
<path d="M668.5 235C668.5 234.172 669.172 233.5 670 233.5H688H706C706.828 233.5 707.5 234.172 707.5 235V271C707.5 271.828 706.828 272.5 706 272.5H670C669.172 272.5 668.5 271.828 668.5 271V235Z" fill="white" stroke="#ECF2F9"/>
<rect x="718" y="238" width="50" height="8" rx="4" fill="#D9E6F2"/>
<rect x="718" y="253" width="74" height="4" rx="2" fill="#D9E6F2"/>
<rect x="668" y="283" width="19" height="4" rx="2" fill="#D9E5F2"/>
<rect x="668" y="311" width="15" height="4" rx="2" fill="#D9E5F2"/>
<rect x="668" y="325" width="23" height="4" rx="2" fill="#D9E5F2"/>
<rect x="668" y="297" width="32" height="4" rx="2" fill="#D9E5F2"/>
</g>
<g opacity="0.7" filter="url(#filter8_dddd)">
<rect x="130" y="54.7725" width="124" height="62.9687" rx="6.38657" fill="white"/>
<g clip-path="url(#clip3)">
<path fill-rule="evenodd" clip-rule="evenodd" d="M204.038 96.5667C198.227 100.85 189.804 103.135 182.552 103.135C172.384 103.135 163.229 99.3743 156.304 93.1191C155.76 92.6272 156.247 91.9569 156.9 92.34C164.374 96.6885 173.615 99.3047 183.161 99.3047C189.599 99.3047 196.682 97.9727 203.194 95.2085C204.177 94.7907 205 95.8528 204.038 96.5667Z" fill="#FF9900"/>
<path fill-rule="evenodd" clip-rule="evenodd" d="M206.454 93.8028C205.714 92.8539 201.544 93.3545 199.672 93.5765C199.102 93.6461 199.015 93.1499 199.528 92.793C202.85 90.4554 208.3 91.1301 208.935 91.9137C209.571 92.7015 208.77 98.1645 205.649 100.772C205.17 101.172 204.713 100.959 204.926 100.428C205.627 98.6781 207.198 94.7561 206.454 93.8028Z" fill="#FF9900"/>
<path fill-rule="evenodd" clip-rule="evenodd" d="M199.803 76.2912V74.0189C199.803 73.675 200.064 73.4443 200.377 73.4443H210.55C210.876 73.4443 211.138 73.6794 211.138 74.0189V75.9647C211.133 76.2912 210.859 76.7177 210.372 77.3924L205.1 84.9187C207.059 84.8708 209.127 85.1624 210.903 86.1636C211.303 86.39 211.412 86.7208 211.442 87.0473V89.4718C211.442 89.8027 211.077 90.1901 210.694 89.9898C207.564 88.3488 203.407 88.1703 199.946 90.0073C199.594 90.1988 199.224 89.8157 199.224 89.4849V87.1822C199.224 86.8122 199.228 86.181 199.598 85.6195L205.705 76.8614H200.39C200.064 76.8614 199.803 76.6307 199.803 76.2912Z" fill="black"/>
<path fill-rule="evenodd" clip-rule="evenodd" d="M162.694 90.4683H159.599C159.303 90.4465 159.068 90.2246 159.046 89.9416V74.0578C159.046 73.74 159.312 73.4875 159.642 73.4875H162.528C162.829 73.5006 163.068 73.7313 163.09 74.0186V76.0949H163.147C163.9 74.0882 165.314 73.1523 167.221 73.1523C169.158 73.1523 170.368 74.0882 171.239 76.0949C171.987 74.0882 173.689 73.1523 175.513 73.1523C176.81 73.1523 178.23 73.6878 179.096 74.8892C180.075 76.2255 179.875 78.1669 179.875 79.8689L179.871 89.8937C179.871 90.2115 179.605 90.4683 179.274 90.4683H176.184C175.875 90.4465 175.626 90.1984 175.626 89.8937V81.4752C175.626 80.8048 175.687 79.1333 175.539 78.4977C175.309 77.4313 174.617 77.1309 173.72 77.1309C172.971 77.1309 172.188 77.6315 171.87 78.4325C171.552 79.2334 171.583 80.5741 171.583 81.4752V89.8937C171.583 90.2115 171.317 90.4683 170.986 90.4683H167.896C167.582 90.4465 167.338 90.1984 167.338 89.8937L167.334 81.4752C167.334 79.7035 167.626 77.0961 165.428 77.0961C163.203 77.0961 163.29 79.6382 163.29 81.4752V89.8937C163.29 90.2115 163.025 90.4683 162.694 90.4683" fill="black"/>
<path fill-rule="evenodd" clip-rule="evenodd" d="M219.896 73.1523C224.488 73.1523 226.974 77.0961 226.974 82.1107C226.974 86.9555 224.227 90.7991 219.896 90.7991C215.386 90.7991 212.931 86.8554 212.931 81.9409C212.931 76.996 215.417 73.1523 219.896 73.1523ZM219.922 76.3953C217.641 76.3953 217.497 79.5033 217.497 81.4403C217.497 83.3817 217.467 87.5257 219.896 87.5257C222.294 87.5257 222.407 84.1827 222.407 82.1455C222.407 80.8048 222.351 79.2029 221.946 77.9319C221.598 76.8262 220.906 76.3953 219.922 76.3953Z" fill="black"/>
<path fill-rule="evenodd" clip-rule="evenodd" d="M232.928 90.4683H229.847C229.537 90.4465 229.289 90.1984 229.289 89.8937L229.285 74.0055C229.311 73.7139 229.568 73.4875 229.881 73.4875H232.75C233.02 73.5006 233.242 73.6834 233.303 73.9315V76.3605H233.359C234.226 74.1883 235.44 73.1523 237.577 73.1523C238.966 73.1523 240.32 73.6529 241.19 75.0241C242 76.2952 242 78.4325 242 79.969V89.9677C241.965 90.2463 241.708 90.4683 241.404 90.4683H238.3C238.017 90.4465 237.782 90.2376 237.751 89.9677V81.3402C237.751 79.6034 237.952 77.0613 235.814 77.0613C235.061 77.0613 234.369 77.5662 234.025 78.3323C233.59 79.303 233.533 80.2694 233.533 81.3402V89.8937C233.529 90.2115 233.259 90.4683 232.928 90.4683" fill="black"/>
<path fill-rule="evenodd" clip-rule="evenodd" d="M191.693 82.8812C191.693 84.0869 191.724 85.0925 191.114 86.1633C190.622 87.0339 189.839 87.5693 188.973 87.5693C187.784 87.5693 187.088 86.6639 187.088 85.3275C187.088 82.6896 189.451 82.2108 191.693 82.2108V82.8812ZM194.814 90.4248C194.61 90.6076 194.314 90.6207 194.083 90.4988C193.056 89.6456 192.868 89.2495 192.307 88.4355C190.609 90.168 189.403 90.686 187.205 90.686C184.598 90.686 182.574 89.0797 182.574 85.8629C182.574 83.3513 183.932 81.6406 185.873 80.8048C187.553 80.0648 189.9 79.9342 191.693 79.7296V79.3292C191.693 78.5935 191.75 77.7229 191.314 77.0874C190.94 76.5172 190.217 76.2821 189.578 76.2821C188.398 76.2821 187.349 76.8872 187.092 78.1408C187.04 78.4194 186.835 78.6936 186.552 78.7067L183.553 78.3846C183.301 78.328 183.018 78.1234 183.092 77.736C183.779 74.0969 187.07 73 190.013 73C191.519 73 193.487 73.4005 194.675 74.5409C196.181 75.9469 196.037 77.8231 196.037 79.8646V84.6876C196.037 86.1372 196.638 86.7727 197.204 87.5562C197.4 87.8348 197.443 88.17 197.191 88.3789C196.56 88.9056 195.437 89.885 194.819 90.4335L194.814 90.4248" fill="black"/>
<path fill-rule="evenodd" clip-rule="evenodd" d="M151.119 82.8812C151.119 84.0869 151.15 85.0925 150.54 86.1633C150.049 87.0339 149.269 87.5693 148.399 87.5693C147.21 87.5693 146.518 86.6639 146.518 85.3275C146.518 82.6896 148.882 82.2108 151.119 82.2108V82.8812ZM154.24 90.4248C154.036 90.6076 153.74 90.6207 153.509 90.4988C152.482 89.6456 152.299 89.2495 151.733 88.4355C150.036 90.168 148.834 90.686 146.632 90.686C144.028 90.686 142 89.0798 142 85.8629C142 83.3513 143.362 81.6406 145.3 80.8048C146.98 80.0648 149.326 79.9342 151.119 79.7296V79.3292C151.119 78.5935 151.176 77.7229 150.745 77.0874C150.366 76.5172 149.644 76.2821 149.008 76.2821C147.829 76.2821 146.775 76.8872 146.518 78.1408C146.466 78.4194 146.262 78.6936 145.983 78.7067L142.979 78.3846C142.727 78.328 142.448 78.1234 142.518 77.736C143.21 74.0969 146.497 73 149.439 73C150.945 73 152.913 73.4005 154.101 74.5409C155.607 75.9469 155.464 77.8231 155.464 79.8646V84.6876C155.464 86.1372 156.064 86.7727 156.63 87.5562C156.83 87.8348 156.874 88.17 156.622 88.3789C155.99 88.9056 154.867 89.885 154.249 90.4335L154.24 90.4248" fill="black"/>
</g>
<rect x="130.532" y="55.3047" width="122.936" height="61.9043" rx="5.85436" stroke="white" stroke-width="1.06443"/>
</g>
<g filter="url(#filter9_dddddd)">
<rect x="246" y="193" width="158.608" height="57.7646" rx="5.87437" fill="white"/>
<g clip-path="url(#clip4)">
<path d="M318.745 222.385C318.745 226.549 315.487 229.618 311.489 229.618C307.491 229.618 304.234 226.549 304.234 222.385C304.234 218.191 307.491 215.152 311.489 215.152C315.487 215.152 318.745 218.191 318.745 222.385ZM315.568 222.385C315.568 219.783 313.68 218.002 311.489 218.002C309.298 218.002 307.41 219.783 307.41 222.385C307.41 224.961 309.298 226.768 311.489 226.768C313.68 226.768 315.568 224.958 315.568 222.385Z" fill="#EA4335"/>
<path d="M334.397 222.385C334.397 226.549 331.139 229.618 327.141 229.618C323.143 229.618 319.886 226.549 319.886 222.385C319.886 218.195 323.143 215.152 327.141 215.152C331.139 215.152 334.397 218.191 334.397 222.385ZM331.221 222.385C331.221 219.783 329.333 218.002 327.141 218.002C324.95 218.002 323.062 219.783 323.062 222.385C323.062 224.961 324.95 226.768 327.141 226.768C329.333 226.768 331.221 224.958 331.221 222.385Z" fill="#FBBC05"/>
<path d="M349.397 215.589V228.574C349.397 233.915 346.247 236.097 342.523 236.097C339.017 236.097 336.908 233.752 336.112 231.835L338.877 230.684C339.37 231.861 340.576 233.25 342.52 233.25C344.903 233.25 346.38 231.78 346.38 229.011V227.971H346.27C345.559 228.848 344.189 229.614 342.461 229.614C338.845 229.614 335.531 226.464 335.531 222.411C335.531 218.328 338.845 215.152 342.461 215.152C344.186 215.152 345.555 215.919 346.27 216.77H346.38V215.593H349.397V215.589ZM346.605 222.411C346.605 219.864 344.907 218.002 342.745 218.002C340.553 218.002 338.717 219.864 338.717 222.411C338.717 224.932 340.553 226.768 342.745 226.768C344.907 226.768 346.605 224.932 346.605 222.411Z" fill="#4285F4"/>
<path d="M354.37 207.979V229.174H351.272V207.979H354.37Z" fill="#34A853"/>
<path d="M366.441 224.765L368.907 226.408C368.111 227.585 366.193 229.614 362.88 229.614C358.772 229.614 355.703 226.438 355.703 222.381C355.703 218.08 358.798 215.148 362.525 215.148C366.278 215.148 368.114 218.135 368.714 219.75L369.043 220.571L359.375 224.576C360.115 226.027 361.266 226.767 362.88 226.767C364.498 226.767 365.62 225.971 366.441 224.765ZM358.853 222.163L365.316 219.479C364.961 218.576 363.891 217.946 362.633 217.946C361.018 217.946 358.772 219.371 358.853 222.163Z" fill="#EA4335"/>
<path d="M292.508 220.503V217.435H302.848C302.949 217.97 303.001 218.602 303.001 219.287C303.001 221.589 302.372 224.436 300.344 226.464C298.371 228.519 295.85 229.614 292.511 229.614C286.322 229.614 281.117 224.573 281.117 218.384C281.117 212.195 286.322 207.153 292.511 207.153C295.935 207.153 298.374 208.497 300.207 210.248L298.041 212.413C296.727 211.18 294.947 210.222 292.508 210.222C287.988 210.222 284.453 213.864 284.453 218.384C284.453 222.903 287.988 226.546 292.508 226.546C295.439 226.546 297.109 225.369 298.178 224.299C299.046 223.432 299.616 222.192 299.841 220.5L292.508 220.503Z" fill="#4285F4"/>
</g>
<rect x="246.49" y="193.49" width="157.629" height="56.7855" rx="5.38484" stroke="white" stroke-width="0.979061"/>
</g>
<g opacity="0.7" filter="url(#filter10_dddd)">
<rect x="438" y="727" width="122.959" height="62.4403" rx="6.33298" fill="white"/>
<g clip-path="url(#clip5)">
<path d="M471.726 749.583C466.434 749.583 462.025 751.828 462.025 758.601C462.025 763.966 464.99 767.345 471.863 767.345C479.952 767.345 480.47 762.017 480.47 762.017H476.551C476.551 762.017 475.71 764.886 471.623 764.886C468.295 764.886 465.901 762.637 465.901 759.486H480.88V757.508C480.88 754.39 478.901 749.583 471.726 749.583ZM471.589 752.111C474.758 752.111 476.918 754.052 476.918 756.961H465.987C465.987 753.873 468.807 752.111 471.589 752.111Z" fill="#E53238"/>
<path d="M480.878 743.025V763.945C480.878 765.132 480.793 766.8 480.793 766.8H484.531C484.531 766.8 484.666 765.602 484.666 764.508C484.666 764.508 486.513 767.397 491.535 767.397C496.824 767.397 500.416 763.726 500.416 758.465C500.416 753.571 497.116 749.635 491.544 749.635C486.325 749.635 484.703 752.453 484.703 752.453V743.025H480.878ZM490.579 752.223C494.17 752.223 496.454 754.888 496.454 758.465C496.454 762.301 493.816 764.81 490.604 764.81C486.771 764.81 484.703 761.817 484.703 758.499C484.703 755.408 486.559 752.223 490.579 752.223Z" fill="#0064D2"/>
<path d="M509.707 749.583C501.746 749.583 501.236 753.942 501.236 754.638H505.198C505.198 754.638 505.406 752.094 509.434 752.094C512.051 752.094 514.079 753.292 514.079 755.595V756.415H509.434C503.267 756.415 500.006 758.219 500.006 761.88C500.006 765.483 503.019 767.444 507.09 767.444C512.638 767.444 514.425 764.378 514.425 764.378C514.425 765.597 514.519 766.799 514.519 766.799H518.042C518.042 766.799 517.905 765.309 517.905 764.356V756.12C517.905 750.72 513.549 749.583 509.707 749.583ZM514.079 758.874V759.967C514.079 761.393 513.2 764.937 508.021 764.937C505.185 764.937 503.969 763.522 503.969 761.88C503.969 758.893 508.063 758.874 514.079 758.874Z" fill="#F5AF02"/>
<path d="M515.771 750.268H520.229L526.626 763.084L533.009 750.268H537.047L525.421 773.085H521.186L524.54 766.725L515.771 750.268Z" fill="#86B817"/>
</g>
<rect x="438.528" y="727.528" width="121.904" height="61.3848" rx="5.80523" stroke="white" stroke-width="1.0555"/>
</g>
<g opacity="0.06" filter="url(#filter11_dddd)">
<g clip-path="url(#clip6)">
<rect x="423" y="821" width="41" height="34" rx="3.45081" fill="white"/>
</g>
<rect x="423.288" y="821.288" width="40.4249" height="33.4249" rx="3.16324" stroke="white" stroke-width="0.575135"/>
</g>
<g opacity="0.1" filter="url(#filter12_dddd)">
<g clip-path="url(#clip7)">
<rect x="152" y="635" width="118" height="59.9219" rx="6.07755" fill="white"/>
</g>
<rect x="152.506" y="635.506" width="116.987" height="58.909" rx="5.57108" stroke="white" stroke-width="1.01292"/>
</g>
<g opacity="0.1" filter="url(#filter13_dddd)">
<g clip-path="url(#clip8)">
<rect x="719" y="815.664" width="97" height="49.2578" rx="4.99595" fill="white"/>
</g>
<rect x="719.416" y="816.08" width="96.1673" height="48.4252" rx="4.57962" stroke="white" stroke-width="0.832658"/>
</g>
<g opacity="0.1" filter="url(#filter14_dddd)">
<rect x="456" y="116" width="119" height="45" rx="4.5641" fill="white"/>
<rect x="456.38" y="116.38" width="118.239" height="44.2393" rx="4.18376" stroke="white" stroke-width="0.760684"/>
</g>
<g opacity="0.1" filter="url(#filter15_dddd)">
<g clip-path="url(#clip9)">
<rect x="899" y="32.6328" width="63" height="31.9922" rx="3.24479" fill="white"/>
</g>
<rect x="899.27" y="32.9032" width="62.4592" height="31.4514" rx="2.97439" stroke="white" stroke-width="0.540799"/>
</g>
<g opacity="0.02" filter="url(#filter16_dddd)">
<g clip-path="url(#clip10)">
<rect x="682" y="885" width="77" height="39.1016" rx="3.96586" fill="white"/>
</g>
<rect x="682.33" y="885.33" width="76.339" height="38.4406" rx="3.63537" stroke="white" stroke-width="0.660976"/>
</g>
<g opacity="0.6" filter="url(#filter17_dddd)">
<rect x="692.604" y="95.2881" width="95.3955" height="48.443" rx="4.91331" fill="white"/>
<g clip-path="url(#clip11)">
<path fill-rule="evenodd" clip-rule="evenodd" d="M709.769 116.254V117.268C709.769 117.334 709.725 117.378 709.659 117.378H705.31V119.449H708.899C708.965 119.449 709.009 119.494 709.009 119.56V120.573C709.009 120.64 708.965 120.684 708.899 120.684H705.31V123.747C705.31 123.813 705.266 123.857 705.2 123.857H704.11C704.044 123.857 704 123.813 704 123.747V116.254C704 116.188 704.044 116.144 704.11 116.144H709.659C709.725 116.144 709.769 116.188 709.769 116.254Z" fill="#687B81"/>
<path fill-rule="evenodd" clip-rule="evenodd" d="M716.336 120.595C715.934 119.482 715.488 118.369 715.031 117.356H714.773C714.316 118.369 713.864 119.482 713.463 120.595H716.336ZM718.643 123.857H717.443C717.377 123.857 717.333 123.824 717.316 123.758C717.156 123.124 716.964 122.458 716.743 121.785H713.061C712.841 122.458 712.648 123.124 712.494 123.758C712.477 123.824 712.433 123.857 712.367 123.857H711.211C711.134 123.857 711.09 123.813 711.112 123.736C711.806 121.278 712.863 118.568 713.93 116.287C713.98 116.182 714.041 116.144 714.145 116.144H715.709C715.813 116.144 715.874 116.182 715.923 116.287C717.002 118.562 718.043 121.278 718.742 123.736C718.764 123.813 718.72 123.857 718.643 123.857Z" fill="#687B81"/>
<path fill-rule="evenodd" clip-rule="evenodd" d="M720.613 120.066C720.613 117.675 722.187 116 724.433 116H724.598C726.008 116 727.098 116.716 727.676 117.752C727.714 117.818 727.703 117.873 727.637 117.906L726.668 118.386C726.602 118.419 726.52 118.419 726.476 118.336C726.068 117.631 725.457 117.256 724.554 117.256H724.389C722.975 117.256 722 118.38 722 120.011C722 121.647 722.958 122.744 724.389 122.744H724.554C725.479 122.744 726.019 122.43 726.432 121.95C726.487 121.89 726.547 121.879 726.613 121.912L727.61 122.397C727.648 122.419 727.665 122.446 727.665 122.474C727.665 122.501 727.654 122.523 727.632 122.556C727.021 123.449 725.92 124 724.577 124H724.411C722.127 124 720.613 122.43 720.613 120.066" fill="#687B81"/>
<path fill-rule="evenodd" clip-rule="evenodd" d="M736.445 122.733V123.747C736.445 123.813 736.4 123.857 736.334 123.857H730.554C730.488 123.857 730.444 123.813 730.444 123.747V116.254C730.444 116.188 730.488 116.144 730.554 116.144H736.235C736.301 116.144 736.345 116.188 736.345 116.254V117.268C736.345 117.334 736.301 117.378 736.235 117.378H731.754V119.383H735.399C735.465 119.383 735.509 119.427 735.509 119.493V120.496C735.509 120.562 735.465 120.606 735.399 120.606H731.754V122.623H736.334C736.4 122.623 736.445 122.667 736.445 122.733Z" fill="#687B81"/>
<path fill-rule="evenodd" clip-rule="evenodd" d="M745.054 121.626C745.054 120.909 744.58 120.584 743.54 120.584H740.947V122.656H743.54C744.597 122.656 745.054 122.347 745.054 121.626ZM743.171 117.345H740.947V119.416H743.171C744.168 119.416 744.624 119.091 744.624 118.381C744.624 117.67 744.168 117.345 743.171 117.345ZM746.397 121.741C746.397 123.091 745.362 123.857 743.535 123.857H739.747C739.681 123.857 739.637 123.813 739.637 123.747V116.254C739.637 116.188 739.681 116.144 739.747 116.144H743.199C744.977 116.144 745.946 116.849 745.946 118.138C745.946 118.987 745.516 119.543 744.647 119.802C745.869 120.061 746.397 120.794 746.397 121.741Z" fill="#687B81"/>
<path fill-rule="evenodd" clip-rule="evenodd" d="M752.832 122.744C754.412 122.744 755.408 121.658 755.408 120C755.408 118.342 754.412 117.256 752.832 117.256H752.667C751.087 117.256 750.09 118.342 750.09 120C750.09 121.658 751.087 122.744 752.667 122.744H752.832ZM748.703 120C748.703 117.675 750.245 116 752.667 116H752.832C755.254 116 756.795 117.675 756.795 120C756.795 122.325 755.254 124 752.832 124H752.667C750.245 124 748.703 122.325 748.703 120Z" fill="#687B81"/>
<path fill-rule="evenodd" clip-rule="evenodd" d="M763.159 122.744C764.738 122.744 765.735 121.658 765.735 120C765.735 118.342 764.738 117.256 763.159 117.256H762.993C761.414 117.256 760.417 118.342 760.417 120C760.417 121.658 761.414 122.744 762.993 122.744H763.159ZM759.03 120C759.03 117.675 760.571 116 762.993 116H763.159C765.581 116 767.122 117.675 767.122 120C767.122 122.325 765.581 124 763.159 124H762.993C760.571 124 759.03 122.325 759.03 120Z" fill="#687B81"/>
<path fill-rule="evenodd" clip-rule="evenodd" d="M776.617 123.857H775.197C775.104 123.857 775.065 123.835 775.004 123.763C774.008 122.59 772.83 121.422 771.828 120.562H771.19V123.747C771.19 123.813 771.146 123.857 771.08 123.857H769.99C769.924 123.857 769.88 123.813 769.88 123.747V116.254C769.88 116.188 769.924 116.144 769.99 116.144H771.08C771.146 116.144 771.19 116.188 771.19 116.254V119.295H771.839C772.913 118.325 773.904 117.279 774.713 116.226C774.768 116.155 774.812 116.144 774.878 116.144H776.221C776.287 116.144 776.32 116.177 776.32 116.221C776.32 116.243 776.309 116.27 776.282 116.303C775.098 117.763 773.926 118.959 772.841 119.885C774.206 121.042 775.5 122.331 776.678 123.719C776.739 123.791 776.706 123.857 776.618 123.857" fill="#687B81"/>
</g>
<rect x="693.014" y="95.6975" width="94.5766" height="47.6241" rx="4.50387" stroke="white" stroke-width="0.818885"/>
</g>
</g>
<defs>
<filter id="filter0_d" x="110" y="215" width="700" height="470" filterUnits="userSpaceOnUse" color-interpolation-filters="sRGB">
<feFlood flood-opacity="0" result="BackgroundImageFix"/>
<feColorMatrix in="SourceAlpha" type="matrix" values="0 0 0 0 0 0 0 0 0 0 0 0 0 0 0 0 0 0 127 0"/>
<feOffset/>
<feGaussianBlur stdDeviation="10"/>
<feColorMatrix type="matrix" values="0 0 0 0 0.641424 0 0 0 0 0.699878 0 0 0 0 0.758333 0 0 0 0.2 0"/>
<feBlend mode="normal" in2="BackgroundImageFix" result="effect1_dropShadow"/>
<feBlend mode="normal" in="SourceGraphic" in2="effect1_dropShadow" result="shape"/>
</filter>
<filter id="filter1_dddd" x="111.014" y="218.024" width="697.972" height="467.972" filterUnits="userSpaceOnUse" color-interpolation-filters="sRGB">
<feFlood flood-opacity="0" result="BackgroundImageFix"/>
<feColorMatrix in="SourceAlpha" type="matrix" values="0 0 0 0 0 0 0 0 0 0 0 0 0 0 0 0 0 0 127 0"/>
<feOffset dy="0.249053"/>
<feGaussianBlur stdDeviation="1.17608"/>
<feColorMatrix type="matrix" values="0 0 0 0 0.313726 0 0 0 0 0.403922 0 0 0 0 0.647059 0 0 0 0.0196802 0"/>
<feBlend mode="normal" in2="BackgroundImageFix" result="effect1_dropShadow"/>
<feColorMatrix in="SourceAlpha" type="matrix" values="0 0 0 0 0 0 0 0 0 0 0 0 0 0 0 0 0 0 127 0"/>
<feOffset dy="0.598509"/>
<feGaussianBlur stdDeviation="2.82629"/>
<feColorMatrix type="matrix" values="0 0 0 0 0.313726 0 0 0 0 0.403922 0 0 0 0 0.647059 0 0 0 0.0282725 0"/>
<feBlend mode="normal" in2="effect1_dropShadow" result="effect2_dropShadow"/>
<feColorMatrix in="SourceAlpha" type="matrix" values="0 0 0 0 0 0 0 0 0 0 0 0 0 0 0 0 0 0 127 0"/>
<feOffset dy="1.12694"/>
<feGaussianBlur stdDeviation="5.32166"/>
<feColorMatrix type="matrix" values="0 0 0 0 0.313726 0 0 0 0 0.403922 0 0 0 0 0.647059 0 0 0 0.035 0"/>
<feBlend mode="normal" in2="effect2_dropShadow" result="effect3_dropShadow"/>
<feColorMatrix in="SourceAlpha" type="matrix" values="0 0 0 0 0 0 0 0 0 0 0 0 0 0 0 0 0 0 127 0"/>
<feOffset dy="2.01027"/>
<feGaussianBlur stdDeviation="9.49293"/>
<feColorMatrix type="matrix" values="0 0 0 0 0.313726 0 0 0 0 0.403922 0 0 0 0 0.647059 0 0 0 0.0417275 0"/>
<feBlend mode="normal" in2="effect3_dropShadow" result="effect4_dropShadow"/>
<feBlend mode="normal" in="SourceGraphic" in2="effect4_dropShadow" result="shape"/>
</filter>
<filter id="filter2_dddd" x="111.014" y="218.024" width="137.972" height="467.972" filterUnits="userSpaceOnUse" color-interpolation-filters="sRGB">
<feFlood flood-opacity="0" result="BackgroundImageFix"/>
<feColorMatrix in="SourceAlpha" type="matrix" values="0 0 0 0 0 0 0 0 0 0 0 0 0 0 0 0 0 0 127 0"/>
<feOffset dy="0.249053"/>
<feGaussianBlur stdDeviation="1.17608"/>
<feColorMatrix type="matrix" values="0 0 0 0 0.313726 0 0 0 0 0.403922 0 0 0 0 0.647059 0 0 0 0.0196802 0"/>
<feBlend mode="normal" in2="BackgroundImageFix" result="effect1_dropShadow"/>
<feColorMatrix in="SourceAlpha" type="matrix" values="0 0 0 0 0 0 0 0 0 0 0 0 0 0 0 0 0 0 127 0"/>
<feOffset dy="0.598509"/>
<feGaussianBlur stdDeviation="2.82629"/>
<feColorMatrix type="matrix" values="0 0 0 0 0.313726 0 0 0 0 0.403922 0 0 0 0 0.647059 0 0 0 0.0282725 0"/>
<feBlend mode="normal" in2="effect1_dropShadow" result="effect2_dropShadow"/>
<feColorMatrix in="SourceAlpha" type="matrix" values="0 0 0 0 0 0 0 0 0 0 0 0 0 0 0 0 0 0 127 0"/>
<feOffset dy="1.12694"/>
<feGaussianBlur stdDeviation="5.32166"/>
<feColorMatrix type="matrix" values="0 0 0 0 0.313726 0 0 0 0 0.403922 0 0 0 0 0.647059 0 0 0 0.035 0"/>
<feBlend mode="normal" in2="effect2_dropShadow" result="effect3_dropShadow"/>
<feColorMatrix in="SourceAlpha" type="matrix" values="0 0 0 0 0 0 0 0 0 0 0 0 0 0 0 0 0 0 127 0"/>
<feOffset dy="2.01027"/>
<feGaussianBlur stdDeviation="9.49293"/>
<feColorMatrix type="matrix" values="0 0 0 0 0.313726 0 0 0 0 0.403922 0 0 0 0 0.647059 0 0 0 0.0417275 0"/>
<feBlend mode="normal" in2="effect3_dropShadow" result="effect4_dropShadow"/>
<feBlend mode="normal" in="SourceGraphic" in2="effect4_dropShadow" result="shape"/>
</filter>
<filter id="filter3_d" x="628" y="193" width="270" height="514" filterUnits="userSpaceOnUse" color-interpolation-filters="sRGB">
<feFlood flood-opacity="0" result="BackgroundImageFix"/>
<feColorMatrix in="SourceAlpha" type="matrix" values="0 0 0 0 0 0 0 0 0 0 0 0 0 0 0 0 0 0 127 0"/>
<feOffset/>
<feGaussianBlur stdDeviation="10"/>
<feColorMatrix type="matrix" values="0 0 0 0 0.641424 0 0 0 0 0.699878 0 0 0 0 0.758333 0 0 0 0.2 0"/>
<feBlend mode="normal" in2="BackgroundImageFix" result="effect1_dropShadow"/>
<feBlend mode="normal" in="SourceGraphic" in2="effect1_dropShadow" result="shape"/>
</filter>
<filter id="filter4_d" x="638" y="203" width="250" height="494" filterUnits="userSpaceOnUse" color-interpolation-filters="sRGB">
<feFlood flood-opacity="0" result="BackgroundImageFix"/>
<feColorMatrix in="SourceAlpha" type="matrix" values="0 0 0 0 0 0 0 0 0 0 0 0 0 0 0 0 0 0 127 0"/>
<feOffset/>
<feGaussianBlur stdDeviation="5"/>
<feColorMatrix type="matrix" values="0 0 0 0 0.313726 0 0 0 0 0.403922 0 0 0 0 0.647059 0 0 0 0.05 0"/>
<feBlend mode="normal" in2="BackgroundImageFix" result="effect1_dropShadow"/>
<feBlend mode="normal" in="SourceGraphic" in2="effect1_dropShadow" result="shape"/>
</filter>
<filter id="filter5_d" x="658" y="339" width="210" height="77" filterUnits="userSpaceOnUse" color-interpolation-filters="sRGB">
<feFlood flood-opacity="0" result="BackgroundImageFix"/>
<feColorMatrix in="SourceAlpha" type="matrix" values="0 0 0 0 0 0 0 0 0 0 0 0 0 0 0 0 0 0 127 0"/>
<feOffset/>
<feGaussianBlur stdDeviation="5"/>
<feColorMatrix type="matrix" values="0 0 0 0 0.313726 0 0 0 0 0.403922 0 0 0 0 0.647059 0 0 0 0.05 0"/>
<feBlend mode="normal" in2="BackgroundImageFix" result="effect1_dropShadow"/>
<feBlend mode="normal" in="SourceGraphic" in2="effect1_dropShadow" result="shape"/>
</filter>
<filter id="filter6_d" x="658" y="497" width="210" height="77" filterUnits="userSpaceOnUse" color-interpolation-filters="sRGB">
<feFlood flood-opacity="0" result="BackgroundImageFix"/>
<feColorMatrix in="SourceAlpha" type="matrix" values="0 0 0 0 0 0 0 0 0 0 0 0 0 0 0 0 0 0 127 0"/>
<feOffset/>
<feGaussianBlur stdDeviation="5"/>
<feColorMatrix type="matrix" values="0 0 0 0 0.313726 0 0 0 0 0.403922 0 0 0 0 0.647059 0 0 0 0.05 0"/>
<feBlend mode="normal" in2="BackgroundImageFix" result="effect1_dropShadow"/>
<feBlend mode="normal" in="SourceGraphic" in2="effect1_dropShadow" result="shape"/>
</filter>
<filter id="filter7_d" x="658" y="406" width="210" height="101" filterUnits="userSpaceOnUse" color-interpolation-filters="sRGB">
<feFlood flood-opacity="0" result="BackgroundImageFix"/>
<feColorMatrix in="SourceAlpha" type="matrix" values="0 0 0 0 0 0 0 0 0 0 0 0 0 0 0 0 0 0 127 0"/>
<feOffset/>
<feGaussianBlur stdDeviation="5"/>
<feColorMatrix type="matrix" values="0 0 0 0 0.313726 0 0 0 0 0.403922 0 0 0 0 0.647059 0 0 0 0.05 0"/>
<feBlend mode="normal" in2="BackgroundImageFix" result="effect1_dropShadow"/>
<feBlend mode="normal" in="SourceGraphic" in2="effect1_dropShadow" result="shape"/>
</filter>
<filter id="filter8_dddd" x="109.791" y="36.7031" width="164.418" height="103.387" filterUnits="userSpaceOnUse" color-interpolation-filters="sRGB">
<feFlood flood-opacity="0" result="BackgroundImageFix"/>
<feColorMatrix in="SourceAlpha" type="matrix" values="0 0 0 0 0 0 0 0 0 0 0 0 0 0 0 0 0 0 127 0"/>
<feOffset dy="0.265099"/>
<feGaussianBlur stdDeviation="1.25186"/>
<feColorMatrix type="matrix" values="0 0 0 0 0.313726 0 0 0 0 0.403922 0 0 0 0 0.647059 0 0 0 0.0196802 0"/>
<feBlend mode="normal" in2="BackgroundImageFix" result="effect1_dropShadow"/>
<feColorMatrix in="SourceAlpha" type="matrix" values="0 0 0 0 0 0 0 0 0 0 0 0 0 0 0 0 0 0 127 0"/>
<feOffset dy="0.637071"/>
<feGaussianBlur stdDeviation="3.00839"/>
<feColorMatrix type="matrix" values="0 0 0 0 0.313726 0 0 0 0 0.403922 0 0 0 0 0.647059 0 0 0 0.0282725 0"/>
<feBlend mode="normal" in2="effect1_dropShadow" result="effect2_dropShadow"/>
<feColorMatrix in="SourceAlpha" type="matrix" values="0 0 0 0 0 0 0 0 0 0 0 0 0 0 0 0 0 0 127 0"/>
<feOffset dy="1.19955"/>
<feGaussianBlur stdDeviation="5.66453"/>
<feColorMatrix type="matrix" values="0 0 0 0 0.313726 0 0 0 0 0.403922 0 0 0 0 0.647059 0 0 0 0.035 0"/>
<feBlend mode="normal" in2="effect2_dropShadow" result="effect3_dropShadow"/>
<feColorMatrix in="SourceAlpha" type="matrix" values="0 0 0 0 0 0 0 0 0 0 0 0 0 0 0 0 0 0 127 0"/>
<feOffset dy="2.13979"/>
<feGaussianBlur stdDeviation="10.1046"/>
<feColorMatrix type="matrix" values="0 0 0 0 0.313726 0 0 0 0 0.403922 0 0 0 0 0.647059 0 0 0 0.0417275 0"/>
<feBlend mode="normal" in2="effect3_dropShadow" result="effect4_dropShadow"/>
<feBlend mode="normal" in="SourceGraphic" in2="effect4_dropShadow" result="shape"/>
</filter>
<filter id="filter9_dddddd" x="162.78" y="118.591" width="325.048" height="224.205" filterUnits="userSpaceOnUse" color-interpolation-filters="sRGB">
<feFlood flood-opacity="0" result="BackgroundImageFix"/>
<feColorMatrix in="SourceAlpha" type="matrix" values="0 0 0 0 0 0 0 0 0 0 0 0 0 0 0 0 0 0 127 0"/>
<feOffset dy="0.243838"/>
<feGaussianBlur stdDeviation="1.15146"/>
<feColorMatrix type="matrix" values="0 0 0 0 0.313726 0 0 0 0 0.403922 0 0 0 0 0.647059 0 0 0 0.0196802 0"/>
<feBlend mode="normal" in2="BackgroundImageFix" result="effect1_dropShadow"/>
<feColorMatrix in="SourceAlpha" type="matrix" values="0 0 0 0 0 0 0 0 0 0 0 0 0 0 0 0 0 0 127 0"/>
<feOffset dy="0.585977"/>
<feGaussianBlur stdDeviation="2.76711"/>
<feColorMatrix type="matrix" values="0 0 0 0 0.313726 0 0 0 0 0.403922 0 0 0 0 0.647059 0 0 0 0.0282725 0"/>
<feBlend mode="normal" in2="effect1_dropShadow" result="effect2_dropShadow"/>
<feColorMatrix in="SourceAlpha" type="matrix" values="0 0 0 0 0 0 0 0 0 0 0 0 0 0 0 0 0 0 127 0"/>
<feOffset dy="1.10334"/>
<feGaussianBlur stdDeviation="5.21023"/>
<feColorMatrix type="matrix" values="0 0 0 0 0.313726 0 0 0 0 0.403922 0 0 0 0 0.647059 0 0 0 0.035 0"/>
<feBlend mode="normal" in2="effect2_dropShadow" result="effect3_dropShadow"/>
<feColorMatrix in="SourceAlpha" type="matrix" values="0 0 0 0 0 0 0 0 0 0 0 0 0 0 0 0 0 0 127 0"/>
<feOffset dy="1.96817"/>
<feGaussianBlur stdDeviation="9.29416"/>
<feColorMatrix type="matrix" values="0 0 0 0 0.313726 0 0 0 0 0.403922 0 0 0 0 0.647059 0 0 0 0.0417275 0"/>
<feBlend mode="normal" in2="effect3_dropShadow" result="effect4_dropShadow"/>
<feColorMatrix in="SourceAlpha" type="matrix" values="0 0 0 0 0 0 0 0 0 0 0 0 0 0 0 0 0 0 127 0"/>
<feOffset dy="3.68125"/>
<feGaussianBlur stdDeviation="17.3837"/>
<feColorMatrix type="matrix" values="0 0 0 0 0.313726 0 0 0 0 0.403922 0 0 0 0 0.647059 0 0 0 0.0503198 0"/>
<feBlend mode="normal" in2="effect4_dropShadow" result="effect5_dropShadow"/>
<feColorMatrix in="SourceAlpha" type="matrix" values="0 0 0 0 0 0 0 0 0 0 0 0 0 0 0 0 0 0 127 0"/>
<feOffset dy="8.81155"/>
<feGaussianBlur stdDeviation="41.6101"/>
<feColorMatrix type="matrix" values="0 0 0 0 0.313726 0 0 0 0 0.403922 0 0 0 0 0.647059 0 0 0 0.07 0"/>
<feBlend mode="normal" in2="effect5_dropShadow" result="effect6_dropShadow"/>
<feBlend mode="normal" in="SourceGraphic" in2="effect6_dropShadow" result="shape"/>
</filter>
<filter id="filter10_dddd" x="417.96" y="709.082" width="163.038" height="102.519" filterUnits="userSpaceOnUse" color-interpolation-filters="sRGB">
<feFlood flood-opacity="0" result="BackgroundImageFix"/>
<feColorMatrix in="SourceAlpha" type="matrix" values="0 0 0 0 0 0 0 0 0 0 0 0 0 0 0 0 0 0 127 0"/>
<feOffset dy="0.262875"/>
<feGaussianBlur stdDeviation="1.24135"/>
<feColorMatrix type="matrix" values="0 0 0 0 0.313726 0 0 0 0 0.403922 0 0 0 0 0.647059 0 0 0 0.0196802 0"/>
<feBlend mode="normal" in2="BackgroundImageFix" result="effect1_dropShadow"/>
<feColorMatrix in="SourceAlpha" type="matrix" values="0 0 0 0 0 0 0 0 0 0 0 0 0 0 0 0 0 0 127 0"/>
<feOffset dy="0.631724"/>
<feGaussianBlur stdDeviation="2.98314"/>
<feColorMatrix type="matrix" values="0 0 0 0 0.313726 0 0 0 0 0.403922 0 0 0 0 0.647059 0 0 0 0.0282725 0"/>
<feBlend mode="normal" in2="effect1_dropShadow" result="effect2_dropShadow"/>
<feColorMatrix in="SourceAlpha" type="matrix" values="0 0 0 0 0 0 0 0 0 0 0 0 0 0 0 0 0 0 127 0"/>
<feOffset dy="1.18948"/>
<feGaussianBlur stdDeviation="5.61699"/>
<feColorMatrix type="matrix" values="0 0 0 0 0.313726 0 0 0 0 0.403922 0 0 0 0 0.647059 0 0 0 0.035 0"/>
<feBlend mode="normal" in2="effect2_dropShadow" result="effect3_dropShadow"/>
<feColorMatrix in="SourceAlpha" type="matrix" values="0 0 0 0 0 0 0 0 0 0 0 0 0 0 0 0 0 0 127 0"/>
<feOffset dy="2.12183"/>
<feGaussianBlur stdDeviation="10.0198"/>
<feColorMatrix type="matrix" values="0 0 0 0 0.313726 0 0 0 0 0.403922 0 0 0 0 0.647059 0 0 0 0.0417275 0"/>
<feBlend mode="normal" in2="effect3_dropShadow" result="effect4_dropShadow"/>
<feBlend mode="normal" in="SourceGraphic" in2="effect4_dropShadow" result="shape"/>
</filter>
<filter id="filter11_dddd" x="412.081" y="811.237" width="62.8389" height="55.8389" filterUnits="userSpaceOnUse" color-interpolation-filters="sRGB">
<feFlood flood-opacity="0" result="BackgroundImageFix"/>
<feColorMatrix in="SourceAlpha" type="matrix" values="0 0 0 0 0 0 0 0 0 0 0 0 0 0 0 0 0 0 127 0"/>
<feOffset dy="0.143239"/>
<feGaussianBlur stdDeviation="0.676407"/>
<feColorMatrix type="matrix" values="0 0 0 0 0.313726 0 0 0 0 0.403922 0 0 0 0 0.647059 0 0 0 0.0196802 0"/>
<feBlend mode="normal" in2="BackgroundImageFix" result="effect1_dropShadow"/>
<feColorMatrix in="SourceAlpha" type="matrix" values="0 0 0 0 0 0 0 0 0 0 0 0 0 0 0 0 0 0 127 0"/>
<feOffset dy="0.344224"/>
<feGaussianBlur stdDeviation="1.6255"/>
<feColorMatrix type="matrix" values="0 0 0 0 0.313726 0 0 0 0 0.403922 0 0 0 0 0.647059 0 0 0 0.0282725 0"/>
<feBlend mode="normal" in2="effect1_dropShadow" result="effect2_dropShadow"/>
<feColorMatrix in="SourceAlpha" type="matrix" values="0 0 0 0 0 0 0 0 0 0 0 0 0 0 0 0 0 0 127 0"/>
<feOffset dy="0.648143"/>
<feGaussianBlur stdDeviation="3.06067"/>
<feColorMatrix type="matrix" values="0 0 0 0 0.313726 0 0 0 0 0.403922 0 0 0 0 0.647059 0 0 0 0.035 0"/>
<feBlend mode="normal" in2="effect2_dropShadow" result="effect3_dropShadow"/>
<feColorMatrix in="SourceAlpha" type="matrix" values="0 0 0 0 0 0 0 0 0 0 0 0 0 0 0 0 0 0 127 0"/>
<feOffset dy="1.15618"/>
<feGaussianBlur stdDeviation="5.45972"/>
<feColorMatrix type="matrix" values="0 0 0 0 0.313726 0 0 0 0 0.403922 0 0 0 0 0.647059 0 0 0 0.0417275 0"/>
<feBlend mode="normal" in2="effect3_dropShadow" result="effect4_dropShadow"/>
<feBlend mode="normal" in="SourceGraphic" in2="effect4_dropShadow" result="shape"/>
</filter>
<filter id="filter12_dddd" x="132.769" y="617.805" width="156.462" height="98.3844" filterUnits="userSpaceOnUse" color-interpolation-filters="sRGB">
<feFlood flood-opacity="0" result="BackgroundImageFix"/>
<feColorMatrix in="SourceAlpha" type="matrix" values="0 0 0 0 0 0 0 0 0 0 0 0 0 0 0 0 0 0 127 0"/>
<feOffset dy="0.252272"/>
<feGaussianBlur stdDeviation="1.19128"/>
<feColorMatrix type="matrix" values="0 0 0 0 0.313726 0 0 0 0 0.403922 0 0 0 0 0.647059 0 0 0 0.0196802 0"/>
<feBlend mode="normal" in2="BackgroundImageFix" result="effect1_dropShadow"/>
<feColorMatrix in="SourceAlpha" type="matrix" values="0 0 0 0 0 0 0 0 0 0 0 0 0 0 0 0 0 0 127 0"/>
<feOffset dy="0.606245"/>
<feGaussianBlur stdDeviation="2.86282"/>
<feColorMatrix type="matrix" values="0 0 0 0 0.313726 0 0 0 0 0.403922 0 0 0 0 0.647059 0 0 0 0.0282725 0"/>
<feBlend mode="normal" in2="effect1_dropShadow" result="effect2_dropShadow"/>
<feColorMatrix in="SourceAlpha" type="matrix" values="0 0 0 0 0 0 0 0 0 0 0 0 0 0 0 0 0 0 127 0"/>
<feOffset dy="1.1415"/>
<feGaussianBlur stdDeviation="5.39044"/>
<feColorMatrix type="matrix" values="0 0 0 0 0.313726 0 0 0 0 0.403922 0 0 0 0 0.647059 0 0 0 0.035 0"/>
<feBlend mode="normal" in2="effect2_dropShadow" result="effect3_dropShadow"/>
<feColorMatrix in="SourceAlpha" type="matrix" values="0 0 0 0 0 0 0 0 0 0 0 0 0 0 0 0 0 0 127 0"/>
<feOffset dy="2.03625"/>
<feGaussianBlur stdDeviation="9.61562"/>
<feColorMatrix type="matrix" values="0 0 0 0 0.313726 0 0 0 0 0.403922 0 0 0 0 0.647059 0 0 0 0.0417275 0"/>
<feBlend mode="normal" in2="effect3_dropShadow" result="effect4_dropShadow"/>
<feBlend mode="normal" in="SourceGraphic" in2="effect4_dropShadow" result="shape"/>
</filter>
<filter id="filter13_dddd" x="703.191" y="801.529" width="128.617" height="80.8753" filterUnits="userSpaceOnUse" color-interpolation-filters="sRGB">
<feFlood flood-opacity="0" result="BackgroundImageFix"/>
<feColorMatrix in="SourceAlpha" type="matrix" values="0 0 0 0 0 0 0 0 0 0 0 0 0 0 0 0 0 0 127 0"/>
<feOffset dy="0.207376"/>
<feGaussianBlur stdDeviation="0.979276"/>
<feColorMatrix type="matrix" values="0 0 0 0 0.313726 0 0 0 0 0.403922 0 0 0 0 0.647059 0 0 0 0.0196802 0"/>
<feBlend mode="normal" in2="BackgroundImageFix" result="effect1_dropShadow"/>
<feColorMatrix in="SourceAlpha" type="matrix" values="0 0 0 0 0 0 0 0 0 0 0 0 0 0 0 0 0 0 127 0"/>
<feOffset dy="0.498354"/>
<feGaussianBlur stdDeviation="2.35334"/>
<feColorMatrix type="matrix" values="0 0 0 0 0.313726 0 0 0 0 0.403922 0 0 0 0 0.647059 0 0 0 0.0282725 0"/>
<feBlend mode="normal" in2="effect1_dropShadow" result="effect2_dropShadow"/>
<feColorMatrix in="SourceAlpha" type="matrix" values="0 0 0 0 0 0 0 0 0 0 0 0 0 0 0 0 0 0 127 0"/>
<feOffset dy="0.938356"/>
<feGaussianBlur stdDeviation="4.43112"/>
<feColorMatrix type="matrix" values="0 0 0 0 0.313726 0 0 0 0 0.403922 0 0 0 0 0.647059 0 0 0 0.035 0"/>
<feBlend mode="normal" in2="effect2_dropShadow" result="effect3_dropShadow"/>
<feColorMatrix in="SourceAlpha" type="matrix" values="0 0 0 0 0 0 0 0 0 0 0 0 0 0 0 0 0 0 127 0"/>
<feOffset dy="1.67387"/>
<feGaussianBlur stdDeviation="7.90437"/>
<feColorMatrix type="matrix" values="0 0 0 0 0.313726 0 0 0 0 0.403922 0 0 0 0 0.647059 0 0 0 0.0417275 0"/>
<feBlend mode="normal" in2="effect3_dropShadow" result="effect4_dropShadow"/>
<feBlend mode="normal" in="SourceGraphic" in2="effect4_dropShadow" result="shape"/>
</filter>
<filter id="filter14_dddd" x="441.558" y="103.087" width="147.884" height="73.8845" filterUnits="userSpaceOnUse" color-interpolation-filters="sRGB">
<feFlood flood-opacity="0" result="BackgroundImageFix"/>
<feColorMatrix in="SourceAlpha" type="matrix" values="0 0 0 0 0 0 0 0 0 0 0 0 0 0 0 0 0 0 127 0"/>
<feOffset dy="0.189451"/>
<feGaussianBlur stdDeviation="0.894628"/>
<feColorMatrix type="matrix" values="0 0 0 0 0.313726 0 0 0 0 0.403922 0 0 0 0 0.647059 0 0 0 0.0196802 0"/>
<feBlend mode="normal" in2="BackgroundImageFix" result="effect1_dropShadow"/>
<feColorMatrix in="SourceAlpha" type="matrix" values="0 0 0 0 0 0 0 0 0 0 0 0 0 0 0 0 0 0 127 0"/>
<feOffset dy="0.455276"/>
<feGaussianBlur stdDeviation="2.14992"/>
<feColorMatrix type="matrix" values="0 0 0 0 0.313726 0 0 0 0 0.403922 0 0 0 0 0.647059 0 0 0 0.0282725 0"/>
<feBlend mode="normal" in2="effect1_dropShadow" result="effect2_dropShadow"/>
<feColorMatrix in="SourceAlpha" type="matrix" values="0 0 0 0 0 0 0 0 0 0 0 0 0 0 0 0 0 0 127 0"/>
<feOffset dy="0.857245"/>
<feGaussianBlur stdDeviation="4.0481"/>
<feColorMatrix type="matrix" values="0 0 0 0 0.313726 0 0 0 0 0.403922 0 0 0 0 0.647059 0 0 0 0.035 0"/>
<feBlend mode="normal" in2="effect2_dropShadow" result="effect3_dropShadow"/>
<feColorMatrix in="SourceAlpha" type="matrix" values="0 0 0 0 0 0 0 0 0 0 0 0 0 0 0 0 0 0 127 0"/>
<feOffset dy="1.52918"/>
<feGaussianBlur stdDeviation="7.22112"/>
<feColorMatrix type="matrix" values="0 0 0 0 0.313726 0 0 0 0 0.403922 0 0 0 0 0.647059 0 0 0 0.0417275 0"/>
<feBlend mode="normal" in2="effect3_dropShadow" result="effect4_dropShadow"/>
<feBlend mode="normal" in="SourceGraphic" in2="effect4_dropShadow" result="shape"/>
</filter>
<filter id="filter15_dddd" x="888.732" y="23.4524" width="83.5351" height="52.5272" filterUnits="userSpaceOnUse" color-interpolation-filters="sRGB">
<feFlood flood-opacity="0" result="BackgroundImageFix"/>
<feColorMatrix in="SourceAlpha" type="matrix" values="0 0 0 0 0 0 0 0 0 0 0 0 0 0 0 0 0 0 127 0"/>
<feOffset dy="0.134688"/>
<feGaussianBlur stdDeviation="0.636025"/>
<feColorMatrix type="matrix" values="0 0 0 0 0.313726 0 0 0 0 0.403922 0 0 0 0 0.647059 0 0 0 0.0196802 0"/>
<feBlend mode="normal" in2="BackgroundImageFix" result="effect1_dropShadow"/>
<feColorMatrix in="SourceAlpha" type="matrix" values="0 0 0 0 0 0 0 0 0 0 0 0 0 0 0 0 0 0 127 0"/>
<feOffset dy="0.323673"/>
<feGaussianBlur stdDeviation="1.52846"/>
<feColorMatrix type="matrix" values="0 0 0 0 0.313726 0 0 0 0 0.403922 0 0 0 0 0.647059 0 0 0 0.0282725 0"/>
<feBlend mode="normal" in2="effect1_dropShadow" result="effect2_dropShadow"/>
<feColorMatrix in="SourceAlpha" type="matrix" values="0 0 0 0 0 0 0 0 0 0 0 0 0 0 0 0 0 0 127 0"/>
<feOffset dy="0.609447"/>
<feGaussianBlur stdDeviation="2.87795"/>
<feColorMatrix type="matrix" values="0 0 0 0 0.313726 0 0 0 0 0.403922 0 0 0 0 0.647059 0 0 0 0.035 0"/>
<feBlend mode="normal" in2="effect2_dropShadow" result="effect3_dropShadow"/>
<feColorMatrix in="SourceAlpha" type="matrix" values="0 0 0 0 0 0 0 0 0 0 0 0 0 0 0 0 0 0 127 0"/>
<feOffset dy="1.08715"/>
<feGaussianBlur stdDeviation="5.13377"/>
<feColorMatrix type="matrix" values="0 0 0 0 0.313726 0 0 0 0 0.403922 0 0 0 0 0.647059 0 0 0 0.0417275 0"/>
<feBlend mode="normal" in2="effect3_dropShadow" result="effect4_dropShadow"/>
<feBlend mode="normal" in="SourceGraphic" in2="effect4_dropShadow" result="shape"/>
</filter>
<filter id="filter16_dddd" x="669.451" y="873.78" width="102.098" height="64.2" filterUnits="userSpaceOnUse" color-interpolation-filters="sRGB">
<feFlood flood-opacity="0" result="BackgroundImageFix"/>
<feColorMatrix in="SourceAlpha" type="matrix" values="0 0 0 0 0 0 0 0 0 0 0 0 0 0 0 0 0 0 127 0"/>
<feOffset dy="0.164618"/>
<feGaussianBlur stdDeviation="0.777364"/>
<feColorMatrix type="matrix" values="0 0 0 0 0.313726 0 0 0 0 0.403922 0 0 0 0 0.647059 0 0 0 0.0196802 0"/>
<feBlend mode="normal" in2="BackgroundImageFix" result="effect1_dropShadow"/>
<feColorMatrix in="SourceAlpha" type="matrix" values="0 0 0 0 0 0 0 0 0 0 0 0 0 0 0 0 0 0 127 0"/>
<feOffset dy="0.3956"/>
<feGaussianBlur stdDeviation="1.86811"/>
<feColorMatrix type="matrix" values="0 0 0 0 0.313726 0 0 0 0 0.403922 0 0 0 0 0.647059 0 0 0 0.0282725 0"/>
<feBlend mode="normal" in2="effect1_dropShadow" result="effect2_dropShadow"/>
<feColorMatrix in="SourceAlpha" type="matrix" values="0 0 0 0 0 0 0 0 0 0 0 0 0 0 0 0 0 0 127 0"/>
<feOffset dy="0.74488"/>
<feGaussianBlur stdDeviation="3.51749"/>
<feColorMatrix type="matrix" values="0 0 0 0 0.313726 0 0 0 0 0.403922 0 0 0 0 0.647059 0 0 0 0.035 0"/>
<feBlend mode="normal" in2="effect2_dropShadow" result="effect3_dropShadow"/>
<feColorMatrix in="SourceAlpha" type="matrix" values="0 0 0 0 0 0 0 0 0 0 0 0 0 0 0 0 0 0 127 0"/>
<feOffset dy="1.32874"/>
<feGaussianBlur stdDeviation="6.2746"/>
<feColorMatrix type="matrix" values="0 0 0 0 0.313726 0 0 0 0 0.403922 0 0 0 0 0.647059 0 0 0 0.0417275 0"/>
<feBlend mode="normal" in2="effect3_dropShadow" result="effect4_dropShadow"/>
<feBlend mode="normal" in="SourceGraphic" in2="effect4_dropShadow" result="shape"/>
</filter>
<filter id="filter17_dddd" x="677.057" y="81.387" width="126.49" height="79.5375" filterUnits="userSpaceOnUse" color-interpolation-filters="sRGB">
<feFlood flood-opacity="0" result="BackgroundImageFix"/>
<feColorMatrix in="SourceAlpha" type="matrix" values="0 0 0 0 0 0 0 0 0 0 0 0 0 0 0 0 0 0 127 0"/>
<feOffset dy="0.203946"/>
<feGaussianBlur stdDeviation="0.963078"/>
<feColorMatrix type="matrix" values="0 0 0 0 0.313726 0 0 0 0 0.403922 0 0 0 0 0.647059 0 0 0 0.0196802 0"/>
<feBlend mode="normal" in2="BackgroundImageFix" result="effect1_dropShadow"/>
<feColorMatrix in="SourceAlpha" type="matrix" values="0 0 0 0 0 0 0 0 0 0 0 0 0 0 0 0 0 0 127 0"/>
<feOffset dy="0.49011"/>
<feGaussianBlur stdDeviation="2.31441"/>
<feColorMatrix type="matrix" values="0 0 0 0 0.313726 0 0 0 0 0.403922 0 0 0 0 0.647059 0 0 0 0.0282725 0"/>
<feBlend mode="normal" in2="effect1_dropShadow" result="effect2_dropShadow"/>
<feColorMatrix in="SourceAlpha" type="matrix" values="0 0 0 0 0 0 0 0 0 0 0 0 0 0 0 0 0 0 127 0"/>
<feOffset dy="0.922834"/>
<feGaussianBlur stdDeviation="4.35783"/>
<feColorMatrix type="matrix" values="0 0 0 0 0.313726 0 0 0 0 0.403922 0 0 0 0 0.647059 0 0 0 0.035 0"/>
<feBlend mode="normal" in2="effect2_dropShadow" result="effect3_dropShadow"/>
<feColorMatrix in="SourceAlpha" type="matrix" values="0 0 0 0 0 0 0 0 0 0 0 0 0 0 0 0 0 0 127 0"/>
<feOffset dy="1.64618"/>
<feGaussianBlur stdDeviation="7.77362"/>
<feColorMatrix type="matrix" values="0 0 0 0 0.313726 0 0 0 0 0.403922 0 0 0 0 0.647059 0 0 0 0.0417275 0"/>
<feBlend mode="normal" in2="effect3_dropShadow" result="effect4_dropShadow"/>
<feBlend mode="normal" in="SourceGraphic" in2="effect4_dropShadow" result="shape"/>
</filter>
<clipPath id="clip0">
<rect width="1008" height="900" fill="white"/>
</clipPath>
<clipPath id="clip1">
<rect x="260" y="386" width="358" height="279" rx="6" fill="white"/>
</clipPath>
<clipPath id="clip2">
<rect width="230" height="474" fill="white" transform="translate(648 213)"/>
</clipPath>
<clipPath id="clip3">
<rect width="100" height="30.1354" fill="white" transform="translate(142 73)"/>
</clipPath>
<clipPath id="clip4">
<rect width="88.6957" height="30" fill="white" transform="translate(281 207)"/>
</clipPath>
<clipPath id="clip5">
<rect width="75.0722" height="30.11" fill="white" transform="translate(462 743)"/>
</clipPath>
<clipPath id="clip6">
<rect x="423" y="821" width="41" height="34" rx="3.45081" fill="white"/>
</clipPath>
<clipPath id="clip7">
<rect x="152" y="635" width="118" height="59.9219" rx="6.07755" fill="white"/>
</clipPath>
<clipPath id="clip8">
<rect x="719" y="815.664" width="97" height="49.2578" rx="4.99595" fill="white"/>
</clipPath>
<clipPath id="clip9">
<rect x="899" y="32.6328" width="63" height="31.9922" rx="3.24479" fill="white"/>
</clipPath>
<clipPath id="clip10">
<rect x="682" y="885" width="77" height="39.1016" rx="3.96586" fill="white"/>
</clipPath>
<clipPath id="clip11">
<rect width="72.709" height="8" fill="white" transform="translate(704 116)"/>
</clipPath>
</defs>
</svg>
